<?xml version="1.0" standalone="no"?>
<!DOCTYPE svg PUBLIC "-//W3C//DTD SVG 1.1//EN" "http://www.w3.org/Graphics/SVG/1.1/DTD/svg11.dtd" >
<svg xmlns="http://www.w3.org/2000/svg" width="100%" height="100%">
<metadata>
Created by FontForge 20090622 at Mon Apr 29 04:36:51 2013
 By fontface
URW Software, Copyright 1992 by URW
</metadata>
<defs>
<font id="CopperplateT-Bold" horiz-adv-x="1460" >
  <font-face 
    font-family="CoppeTBol"
    font-weight="500"
    font-stretch="normal"
    units-per-em="2048"
    panose-1="0 0 0 0 0 0 0 0 0 0"
    ascent="1638"
    descent="-410"
    x-height="1120"
    cap-height="1366"
    bbox="-272 -469 2574 1876"
    underline-thickness="151"
    underline-position="-189"
    unicode-range="U+0020-U+FB02"
  />
<missing-glyph horiz-adv-x="512" 
 />
    <glyph glyph-name=".notdef" horiz-adv-x="512" 
 />
    <glyph glyph-name=".null" horiz-adv-x="0" 
 />
    <glyph glyph-name="nonmarkingreturn" horiz-adv-x="682" 
 />
    <glyph glyph-name="space" unicode=" " horiz-adv-x="512" 
 />
    <glyph glyph-name="exclam" unicode="!" horiz-adv-x="774" 
d="M518 481h-262v33q41 10 52 23t11 49q0 17 -4 45l-71 616q-6 52 -16 65t-50 21v33h418v-33q-39 -8 -49.5 -21t-16.5 -65l-71 -616q-4 -28 -4 -45q0 -36 11 -49t52 -23v-33zM387 303q67 0 115.5 -48.5t48.5 -115.5t-48.5 -115.5t-115.5 -48.5t-115.5 48.5t-48.5 115.5
t48.5 115.5t115.5 48.5z" />
    <glyph glyph-name="quotedbl" unicode="&#x22;" horiz-adv-x="1136" 
d="M403 803v-29h-235v29q38 10 47.5 22.5t9.5 51.5q0 12 -4 32l-65 348q-7 52 -15 62t-45 18v29h379v-29q-36 -6 -43.5 -16.5t-15.5 -63.5l-66 -348q-4 -20 -4 -32q0 -39 9.5 -51.5t47.5 -22.5zM971 803v-29h-236v29q38 10 48 23t10 51q0 7 -5 32l-65 348q-7 53 -14.5 63
t-44.5 17v29h378v-29q-36 -6 -43.5 -16.5t-15.5 -63.5l-65 -348q-5 -25 -5 -32q0 -38 10 -51t48 -23z" />
    <glyph glyph-name="numbersign" unicode="#" horiz-adv-x="1570" 
d="M1233 1055h168q30 0 49.5 15t34.5 50h33l-64 -342h-35q-3 35 -16.5 50.5t-42.5 15.5h-168l-64 -330h168q56 0 84 66h33l-65 -340h-33q-3 34 -17 48.5t-45 14.5h-166l-38 -201v-12q0 -28 9.5 -39t41.5 -20l-8 -35h-340l6 35q38 9 56 25t24 46l39 201h-328l-39 -201
q-2 -2 -2 -12q0 -28 9.5 -39t41.5 -20l-6 -35h-342l8 35q38 9 56 25t22 46l39 201h-166q-56 0 -84 -63h-35l66 340h35q3 -37 16.5 -51.5t42.5 -14.5h168l63 330h-168q-29 0 -47.5 -15t-36.5 -51h-34l65 342h35q3 -36 16 -50.5t43 -14.5h168l39 200v17q0 25 -10 36.5
t-41 20.5l6 33h342l-6 -33q-37 -9 -55.5 -26t-24.5 -48l-39 -200h328l39 200q2 4 2 17q0 24 -10.5 36t-40.5 21l6 33h340l-6 -33q-36 -9 -55 -26.5t-25 -47.5zM918 514l63 330h-328l-63 -330h328z" />
    <glyph glyph-name="dollar" unicode="$" 
d="M821 838l37 -4q528 -46 528 -410q0 -189 -154.5 -310.5t-410.5 -133.5v-66q0 -30 15 -46.5t51 -25.5v-32h-279v32q64 17 64 72v66q-141 12 -255 45t-237 98q-20 10 -33 10q-15 0 -43 -22l-28 14l149 336l29 -15v-12q0 -72 125 -137q64 -31 145 -54.5t148 -29.5v342
q-146 13 -219 29.5t-136 48.5q-89 44 -139.5 129t-50.5 192q0 194 146.5 311t398.5 124v49q0 29 -14.5 45.5t-49.5 25.5v33h279v-33q-37 -9 -51.5 -24.5t-14.5 -46.5v-54q95 -8 195 -37t254 -94q23 -10 39 -10q22 0 51 23l29 -17l-164 -319l-29 14v17q0 49 -127 114
q-132 66 -248 76v-313zM672 854v301q-129 -9 -199 -53.5t-70 -116.5q0 -63 57 -91t212 -40zM821 539v-326q129 14 203 65.5t74 127.5q0 57 -52 87t-169 39q-29 5 -56 7z" />
    <glyph glyph-name="percent" unicode="%" horiz-adv-x="1810" 
d="M418 1378q154 0 251 -98t97 -254q0 -157 -97 -255.5t-251 -98.5q-156 0 -253 98t-97 256q0 157 97.5 254.5t252.5 97.5zM416 1235q-78 0 -127 -58.5t-49 -150.5q0 -94 49 -152.5t127 -58.5q79 0 128.5 58.5t49.5 152.5q0 93 -49.5 151t-128.5 58zM1391 694
q155 0 252.5 -97.5t97.5 -254.5q0 -158 -97 -256t-253 -98q-154 0 -251.5 98t-97.5 256q0 156 97.5 254t251.5 98zM1391 551q-78 0 -127.5 -58.5t-49.5 -150.5q0 -94 49.5 -152.5t127.5 -58.5q79 0 128.5 58.5t49.5 152.5q0 93 -49.5 151t-128.5 58zM1380 1192l-805 -1040
q-36 -47 -36 -68q0 -39 59 -51v-33h-354v33q53 8 81 30.5t97 112.5l788 1016q45 56 45 80q0 45 -59 61v33h354v-33q-30 -3 -42 -5.5t-33 -20t-36.5 -38z" />
    <glyph glyph-name="ampersand" unicode="&#x26;" horiz-adv-x="1585" 
d="M1530 940v-379h-33q-3 29 -9 39t-20 10q-23 0 -68 -30.5t-81 -69.5q-54 -62 -76 -135q62 -63 108 -90t93 -27q45 0 53 49h33v-315q-6 1 -12 3q-11 3 -71 6q-52 3 -93 5q-58 5 -142 54t-145 114q-205 -199 -481 -199q-230 0 -378.5 115.5t-148.5 294.5q0 133 75.5 234
t230.5 176q-71 62 -103.5 124.5t-32.5 135.5q0 145 129.5 240.5t325.5 95.5q194 0 321.5 -97.5t127.5 -246.5q0 -88 -40 -150.5t-141 -134.5q60 -40 93.5 -79.5t68.5 -111.5q97 170 186.5 249.5t229.5 119.5zM684 1186q-91 0 -149 -48.5t-58 -123.5t58 -123.5t149 -48.5
t149 48.5t58 123.5t-58 123.5t-149 48.5zM616 672q-120 0 -200 -65.5t-80 -162.5q0 -103 79.5 -169t205.5 -66t216.5 63t90.5 152q0 94 -97.5 171t-214.5 77z" />
    <glyph glyph-name="quotesingle" unicode="'" horiz-adv-x="569" 
d="M403 803v-29h-235v29q38 10 47.5 22.5t9.5 51.5q0 12 -4 32l-65 348q-7 52 -15 62t-45 18v29h379v-29q-36 -6 -43.5 -16.5t-15.5 -63.5l-66 -348q-4 -20 -4 -32q0 -39 9.5 -51.5t47.5 -22.5z" />
    <glyph glyph-name="parenleft" unicode="(" horiz-adv-x="681" 
d="M557 1530l111 -92q-143 -166 -204 -339t-61 -417q0 -245 60 -417t205 -339l-111 -90q-194 140 -308 368t-114 478q0 252 114 481t308 367z" />
    <glyph glyph-name="parenright" unicode=")" horiz-adv-x="681" 
d="M16 1438l111 92q194 -138 308 -367t114 -481q0 -250 -114 -478t-308 -368l-111 90q145 167 205 339t60 417q0 244 -61 417t-204 339z" />
    <glyph glyph-name="asterisk" unicode="*" horiz-adv-x="1032" 
d="M365 1501h303v-37q-51 -13 -66 -60.5t-20 -203.5q138 50 181 77.5t44 70.5v14l37 12l92 -287l-35 -12q-28 43 -74 43q-58 0 -202 -43q74 -98 113.5 -136t66.5 -38q16 0 43 10l22 -30l-245 -179l-23 31q25 32 25 51q0 31 -23.5 76t-87.5 137q-61 -87 -84.5 -132.5
t-25.5 -76.5q0 -24 24 -55l-22 -31l-244 179l20 30q30 -10 43 -10q54 0 183 174q-154 43 -203 43q-48 0 -76 -43l-35 10l92 289l37 -12v-14q2 -42 51.5 -74.5t174.5 -73.5q-3 111 -10.5 161t-23.5 72t-52 31v37z" />
    <glyph glyph-name="plus" unicode="+" horiz-adv-x="1570" 
d="M686 584h-356q-28 0 -43.5 -14t-24.5 -48h-29v324h29q9 -35 24.5 -50.5t43.5 -15.5h356v357q0 28 -14 43t-49 24v29h323v-29q-35 -9 -49 -24t-14 -43v-357h356q28 0 43.5 15t24.5 51h28v-324h-28q-9 34 -24.5 48t-43.5 14h-356v-357q0 -28 14 -43t49 -24v-29h-323v31
q34 8 48.5 22.5t14.5 42.5v357z" />
    <glyph glyph-name="comma" unicode="," horiz-adv-x="628" 
d="M246 -313l-49 63q84 56 119.5 105.5t50.5 132.5q-51 -13 -74 -13q-65 0 -104 47t-39 125q0 68 41.5 112t105.5 44q82 0 131 -63.5t49 -169.5q0 -220 -231 -383z" />
    <glyph glyph-name="hyphen" unicode="-" horiz-adv-x="454" 
d="M455 733v-346h-33q-9 35 -25 49.5t-47 14.5h-246q-29 0 -45.5 -15t-25.5 -49h-33v346h33q9 -36 25 -50.5t46 -14.5h246q31 0 47 14.5t25 50.5h33z" />
    <glyph glyph-name="period" unicode="." horiz-adv-x="628" 
d="M313 303q67 0 115.5 -48.5t48.5 -115.5t-48.5 -115.5t-115.5 -48.5t-115 48t-48 116t48 116t115 48z" />
    <glyph glyph-name="slash" unicode="/" horiz-adv-x="1554" 
d="M1317 1192l-805 -1040q-37 -48 -37 -68q0 -42 62 -51v-33h-469v33q53 8 81 30.5t97 112.5l788 1016q45 56 45 80q0 45 -59 61v33h467v-33q-30 -3 -42 -5.5t-33 -20t-36.5 -38z" />
    <glyph glyph-name="zero" unicode="0" 
d="M731 1391q188 0 335 -89t228.5 -250t81.5 -368q0 -315 -180 -512t-467 -197q-188 0 -335 89t-228.5 250.5t-81.5 369.5q0 207 81.5 368t229 250t336.5 89zM731 1157q-152 0 -247 -130t-95 -337q0 -206 95 -335.5t247 -129.5q151 0 245.5 129.5t94.5 335.5
q0 207 -94.5 337t-245.5 130z" />
    <glyph glyph-name="one" unicode="1" 
d="M442 872v363h33q11 -36 20 -47.5t27 -11.5q7 0 31 4l86 22v60q0 29 -14.5 45.5t-49.5 25.5v33h416v-33q-35 -9 -49 -24.5t-14 -46.5v-1158q0 -31 14 -46.5t49 -24.5v-33h-416v33q35 9 49.5 25.5t14.5 45.5v865l-92 -23q-33 -7 -48 -22.5t-24 -51.5h-33z" />
    <glyph glyph-name="two" unicode="2" 
d="M438 246h836q31 0 47 14.5t25 50.5h32v-374h-32q-9 35 -25.5 49t-46.5 14h-1063q-54 0 -70.5 -11t-25.5 -52h-33v63q0 116 21 192.5t75 149.5q66 92 154 155t268 146l170 76q120 55 172.5 114.5t52.5 139.5q0 91 -62 138.5t-181 47.5q-91 0 -183 -31.5t-150.5 -81
t-58.5 -98.5q0 -10 15 -65l-23 -23l-266 287l25 22q43 -18 53 -18q19 0 30.5 6.5t51.5 40.5q218 193 536 193q241 0 379.5 -115t138.5 -315q0 -149 -90 -259t-284 -198l-154 -68q-41 -20 -110 -45q-107 -44 -148 -70.5t-76 -74.5z" />
    <glyph glyph-name="three" unicode="3" 
d="M82 1194l24 20q39 -16 54 -16q16 0 55 23q250 170 561 170q249 0 398 -107t149 -287q0 -181 -174 -282q117 -44 172 -117.5t55 -183.5q0 -203 -167.5 -321t-456.5 -118q-271 0 -492 109q-98 45 -121 45q-17 0 -28.5 -7t-38.5 -32l-29 14l158 369l30 -12q-4 -20 -4 -23
q0 -58 74.5 -112t196.5 -86.5t252 -32.5q154 0 241.5 55t87.5 150t-80 144.5t-235 49.5q-100 0 -136.5 -14t-45.5 -55h-33v335h33q12 -44 44 -57.5t126 -13.5q142 0 220.5 46.5t78.5 131.5t-76.5 131.5t-216.5 46.5q-106 0 -207.5 -26t-164 -68.5t-62.5 -87.5q0 -21 12 -43
l-25 -21z" />
    <glyph glyph-name="four" unicode="4" 
d="M944 229h-721q-58 0 -75.5 -11t-26.5 -52h-31v289l678 764q45 50 45 73q0 35 -51 41v33h534v-33q-35 -9 -49 -24.5t-14 -46.5v-807h76q30 0 46 14.5t25 50.5h33v-354h-33q-9 34 -25.5 48.5t-45.5 14.5h-76v-125q0 -30 14 -46t49 -25v-33h-415v33q35 9 49 25t14 46v125z
M944 455v600l-528 -600h528z" />
    <glyph glyph-name="five" unicode="5" 
d="M57 162l242 319l27 -18q-9 -30 -9 -45q0 -47 68.5 -96t174.5 -81t208 -32q155 0 243.5 67.5t88.5 184.5q0 110 -90 175.5t-242 65.5q-114 0 -212.5 -35.5t-98.5 -76.5q0 -11 14 -39l-25 -21l-352 355l21 22h14q47 0 47 62v288q0 34 -14 51.5t-49 24.5v33h1081
q31 0 47 14.5t25 49.5h32v-361h-32q-9 35 -25.5 49.5t-46.5 14.5h-778v-295q169 82 383 82q274 0 436 -124t162 -335q0 -224 -167.5 -355t-455.5 -131q-169 0 -278 32.5t-279 133.5q-41 25 -74 25q-21 0 -61 -25z" />
    <glyph glyph-name="six" unicode="6" 
d="M1386 1288l-176 -327l-28 14q6 23 6 37q0 58 -116 107.5t-251 49.5q-116 0 -213.5 -47.5t-152.5 -130.5q-36 -55 -52 -111t-22 -147q101 91 204 130.5t238 39.5q248 0 403.5 -127.5t155.5 -329.5q0 -209 -171 -340t-443 -131q-319 0 -495.5 182.5t-176.5 512.5
q0 213 91 377t256 254t380 90q114 0 206 -21.5t212 -75.5q42 -18 64 -18q15 0 20.5 2t22.5 16q9 9 12 11zM770 674q-145 0 -236.5 -66t-91.5 -170q0 -105 91.5 -171t236.5 -66q146 0 238 65.5t92 171.5q0 103 -92 169.5t-238 66.5z" />
    <glyph glyph-name="seven" unicode="7" 
d="M1042 1141h-852q-31 0 -46.5 -14.5t-24.5 -51.5h-33v355h33q9 -35 25.5 -49.5t45.5 -14.5h1082q29 0 45.5 14.5t25.5 49.5h33v-261l-614 -1011q-35 -57 -37 -76q0 -17 12 -27.5t43 -21.5v-33h-485v33q43 12 71 37.5t66 87.5z" />
    <glyph glyph-name="eight" unicode="8" 
d="M1081 731q151 -38 228 -119.5t77 -201.5q0 -113 -67 -213.5t-174 -147.5q-168 -74 -414 -74t-414 74q-107 47 -174 147.5t-67 211.5q0 243 305 323q-126 50 -186 119.5t-60 167.5q0 177 157 275t439 98q281 0 438.5 -99t157.5 -274q0 -97 -60 -167.5t-186 -119.5z
M731 1178q-142 0 -224.5 -44.5t-82.5 -121.5q0 -75 82.5 -119.5t224.5 -44.5t224.5 44.5t82.5 119.5q0 77 -82.5 121.5t-224.5 44.5zM731 618q-163 0 -256.5 -54.5t-93.5 -149.5t93.5 -150t256.5 -55q161 0 254.5 55t93.5 150t-93 149.5t-255 54.5z" />
    <glyph glyph-name="nine" unicode="9" 
d="M76 80l176 328l29 -17l-7 -35q0 -39 53 -76t138.5 -60t175.5 -23q116 0 214 47.5t153 130.5q35 54 51 110t22 148q-101 -91 -204 -130.5t-238 -39.5q-248 0 -403.5 127.5t-155.5 329.5q0 209 171 340t443 131q319 0 495.5 -183t176.5 -512q0 -213 -91 -377t-256 -254
t-380 -90q-115 0 -205.5 21t-212.5 76q-40 18 -63 18q-13 0 -19 -2.5t-24 -15.5q-7 -7 -13 -11zM692 1165q-146 0 -238 -65.5t-92 -171.5q0 -104 92 -170t238 -66q144 0 236 67t92 171t-91.5 169.5t-236.5 65.5z" />
    <glyph glyph-name="colon" unicode=":" horiz-adv-x="628" 
d="M313 303q67 0 115.5 -48.5t48.5 -115.5t-48.5 -115.5t-115.5 -48.5t-115 48t-48 116t48 116t115 48zM313 1145q67 0 115.5 -48.5t48.5 -115.5t-48.5 -115.5t-115.5 -48.5t-115 48t-48 116t48 116t115 48z" />
    <glyph glyph-name="semicolon" unicode=";" horiz-adv-x="628" 
d="M246 -313l-49 63q84 56 119.5 105.5t50.5 132.5q-51 -13 -74 -13q-65 0 -104 47t-39 125q0 68 41.5 112t105.5 44q82 0 131 -63.5t49 -169.5q0 -220 -231 -383zM313 1145q67 0 115.5 -48.5t48.5 -115.5t-48.5 -115.5t-115.5 -48.5t-115 48t-48 116t48 116t115 48z" />
    <glyph glyph-name="less" unicode="&#x3c;" horiz-adv-x="1024" 
d="M944 1298v-129l-516 -325l516 -350v-344l-864 589v19z" />
    <glyph glyph-name="equal" unicode="=" horiz-adv-x="1570" 
d="M233 754v323h29q9 -34 24.5 -48.5t43.5 -14.5h909q28 0 43.5 14t24.5 49h28v-323h-28q-9 35 -24.5 49t-43.5 14h-909q-28 0 -43.5 -14t-24.5 -49h-29zM233 289v323h29q9 -34 24.5 -48.5t43.5 -14.5h909q28 0 43.5 14t24.5 49h28v-323h-28q-9 35 -24.5 49t-43.5 14h-909
q-28 0 -43.5 -14t-24.5 -49h-29z" />
    <glyph glyph-name="greater" unicode="&#x3e;" horiz-adv-x="1024" 
d="M80 150v129l516 325l-516 350v344l864 -589v-19z" />
    <glyph glyph-name="question" unicode="?" horiz-adv-x="999" 
d="M213 981l-172 252l27 18q1 -1 3 -2l3 -1.5t2 -0.5q19 -12 35 -12q23 0 84 41q94 62 168 88.5t153 26.5q162 0 262.5 -84.5t100.5 -219.5q0 -77 -40.5 -149t-138.5 -170q-68 -65 -89 -104.5t-21 -100.5q0 -27 12 -39.5t47 -19.5v-33h-330v33q41 12 53.5 32t24.5 93
q10 64 29.5 101t83.5 116q56 71 75 109t19 79q0 66 -42.5 106t-112.5 40q-74 0 -146 -47.5t-72 -96.5q0 -10 9 -37zM500 303q68 0 116 -48.5t48 -115.5t-48 -115.5t-116 -48.5t-116 48.5t-48 115.5t48 115.5t116 48.5z" />
    <glyph glyph-name="at" unicode="@" horiz-adv-x="1681" 
d="M1274 969l-115 -459q-2 -6 -2 -21q0 -20 15.5 -32.5t41.5 -12.5q93 0 151 87t58 225q0 134 -73 245t-200 174.5t-280 63.5q-112 0 -227.5 -46t-208.5 -126q-178 -159 -178 -381q0 -106 42.5 -209.5t117.5 -179.5q159 -168 442 -168q77 0 173 14.5t151 34.5q22 7 22 33v12
l23 8l67 -235l-22 -6q-15 29 -26.5 39t-28.5 10q-14 0 -35 -6q-123 -32 -190 -42.5t-150 -10.5q-156 0 -292 52.5t-233 143.5t-152.5 219t-55.5 275q0 203 99.5 367t274.5 256.5t391 92.5q199 0 359 -76t250 -211.5t90 -305.5q0 -180 -100.5 -312.5t-235.5 -132.5
q-75 0 -121.5 26.5t-87.5 92.5q-57 -43 -143 -69.5t-172 -26.5q-129 0 -208 65t-79 172q0 163 129.5 275t318.5 112q73 0 129 -22.5t113 -75.5l21 72h137zM840 868q-107 0 -183.5 -66.5t-76.5 -160.5q0 -64 44.5 -103.5t116.5 -39.5q128 0 214.5 58.5t86.5 145.5
q0 78 -53 122t-149 44z" />
    <glyph glyph-name="A" unicode="A" horiz-adv-x="1665" 
d="M1122 348h-620l-92 -192q-19 -44 -19 -62q0 -43 66 -61v-33h-451v33q40 8 61.5 28.5t47.5 75.5l501 1051q25 52 25 80q0 45 -57 65v33h483v-33q-59 -15 -59 -59q0 -21 18 -66l522 -1052q32 -66 58 -91.5t67 -31.5v-33h-504v33q66 9 66 61q0 22 -18 62zM1036 535l-221 487
l-225 -487h446z" />
    <glyph glyph-name="B" unicode="B" horiz-adv-x="1650" 
d="M123 1366h921q133 0 215 -20.5t142 -67.5q57 -44 89 -116.5t32 -157.5q0 -200 -185 -287q230 -88 230 -322q0 -193 -130.5 -294t-381.5 -101h-932v33q35 9 49 25t14 46v1158q0 30 -14 46t-49 25v33zM483 823h523q118 0 168.5 37t50.5 123t-49.5 122t-169.5 36h-523v-318z
M483 225h506q144 0 208.5 44.5t64.5 142.5t-64 142t-209 44h-506v-373z" />
    <glyph glyph-name="C" unicode="C" horiz-adv-x="1718" 
d="M1448 469l188 -285l-24 -18q-27 27 -45 27q-14 0 -27.5 -6t-56.5 -33l-19 -9l-10 -8l-12 -6l-10 -6q-141 -80 -263.5 -115t-267.5 -35q-242 0 -425.5 87.5t-283.5 248.5t-100 373q0 320 221.5 513.5t587.5 193.5q265 0 496 -131q4 -2 121 -68q27 -18 49 -18q19 0 45 26
l24 -18l-188 -285l-27 18v27q0 29 -25 54.5t-89 62.5q-176 100 -373 100q-243 0 -390 -130.5t-147 -344.5q0 -217 147 -347t390 -130q197 0 373 100q64 37 89 62.5t25 54.5v27z" />
    <glyph glyph-name="D" unicode="D" horiz-adv-x="1716" 
d="M186 104v1158q0 30 -14 46t-49 25v33h760q190 0 311 -33.5t213 -111.5q217 -184 217 -537q0 -355 -217 -539q-90 -78 -212 -111.5t-312 -33.5h-760v33q35 9 49 25t14 46zM483 225h375q240 0 350.5 110t110.5 349q0 238 -111 347.5t-350 109.5h-375v-916z" />
    <glyph glyph-name="E" unicode="E" horiz-adv-x="1556" 
d="M483 598v-373h881q29 0 46 15.5t26 50.5h30v-354h-30q-9 35 -25.5 49t-46.5 14h-1241v33q35 9 49 25t14 46v1158q0 30 -14 46t-49 25v33h1216q55 0 72 64h33v-353h-33q-9 35 -25.5 49.5t-46.5 14.5h-856v-326h555q31 0 47 14.5t25 51.5h33v-346h-33q-9 35 -25.5 49
t-46.5 14h-555z" />
    <glyph glyph-name="F" unicode="F" horiz-adv-x="1488" 
d="M483 598v-494q0 -29 14.5 -45.5t49.5 -25.5v-33h-424v33q35 9 49 25t14 46v1158q0 30 -14 46t-49 25v33h1208q30 0 46.5 14.5t25.5 49.5h33v-353h-33q-9 35 -25.5 49.5t-46.5 14.5h-848v-326h555q30 0 46.5 14.5t25.5 49.5h33v-347h-33q-9 35 -26 50.5t-46 15.5h-555z
" />
    <glyph glyph-name="G" unicode="G" horiz-adv-x="1757" 
d="M1339 492h-338q-31 0 -46.5 -14.5t-24.5 -49.5h-33v317h33q9 -35 24.5 -49t46.5 -14h648v-33q-34 -9 -49 -25.5t-15 -45.5v-281q0 -31 14.5 -47t49.5 -27v-24q-387 -224 -748 -224q-370 0 -589.5 192.5t-219.5 516.5q0 322 224 514.5t599 192.5q118 0 223 -22t234 -75
q72 -26 98 -26q23 0 50 24l26 -14l-160 -328l-28 15q0 33 -8.5 47.5t-40.5 38.5q-62 44 -179 76t-219 32q-225 0 -369.5 -134t-144.5 -341q0 -215 144 -346t379 -131q118 0 228.5 26t190.5 72v187z" />
    <glyph glyph-name="H" unicode="H" horiz-adv-x="1757" 
d="M1274 596h-791v-492q0 -29 14.5 -45.5t49.5 -25.5v-33h-424v33q35 9 49 25t14 46v1158q0 30 -14 46t-49 25v33h424v-33q-35 -9 -49.5 -24.5t-14.5 -46.5v-441h791v441q0 29 -15 45.5t-49 25.5v33h424v-33q-35 -9 -49 -24.5t-14 -46.5v-1158q0 -30 14 -46t49 -25v-33h-424
v33q34 9 49 25.5t15 45.5v492z" />
    <glyph glyph-name="I" unicode="I" horiz-adv-x="671" 
d="M186 104v1158q0 30 -14 46t-49 25v33h424v-33q-35 -9 -49.5 -24.5t-14.5 -46.5v-1158q0 -29 14.5 -45.5t49.5 -25.5v-33h-424v33q35 9 49 25t14 46z" />
    <glyph glyph-name="J" unicode="J" horiz-adv-x="1236" 
d="M6 51l127 346l31 -10v-20q0 -39 52.5 -76.5t138.5 -60.5t177 -23q138 0 193 58t55 206v791q0 30 -14 46t-49 25v33h424v-33q-35 -9 -49.5 -24.5t-14.5 -46.5v-805q0 -149 -29.5 -231.5t-103.5 -141.5q-133 -109 -358 -109q-99 0 -224 27l-137 39q-96 27 -125 27
q-21 0 -33 -5.5t-30 -21.5z" />
    <glyph glyph-name="K" unicode="K" horiz-adv-x="1642" 
d="M688 639l-205 -168v-367q0 -29 15 -45.5t49 -25.5v-33h-424v33q35 9 49 25t14 46v1158q0 30 -14 46t-49 25v33h424v-33q-35 -9 -49.5 -24.5t-14.5 -46.5v-478l564 459q38 30 38 51q0 30 -59 39v33h559v-33q-35 -5 -49 -14q-21 -12 -166 -133l-463 -373l527 -635
q10 -14 73 -82q35 -36 54 -46.5t61 -16.5v-33h-537v33q54 9 54 37q0 11 -6.5 21.5t-40.5 51.5z" />
    <glyph glyph-name="L" unicode="L" horiz-adv-x="1449" 
d="M483 225h842q31 0 47 14.5t25 51.5h33v-354h-33q-9 35 -25.5 49t-46.5 14h-1202v33q35 9 49 25t14 46v1158q0 30 -14 46t-49 25v33h424v-33q-35 -9 -49.5 -24.5t-14.5 -46.5v-1037z" />
    <glyph glyph-name="M" unicode="M" horiz-adv-x="1978" 
d="M963 18l-504 926v-840q0 -30 14 -46t49 -25v-33h-399v33q35 9 49 25t14 46v1158q0 30 -14 46t-49 25v33h524v-33q-47 -10 -47 -53q0 -19 14 -47l373 -686l379 674q25 46 25 67q0 42 -52 45v33h516v-33q-35 -9 -49 -24.5t-14 -46.5v-1158q0 -30 14 -46t49 -25v-33h-423v33
q34 9 48.5 25.5t14.5 45.5v840z" />
    <glyph glyph-name="N" unicode="N" horiz-adv-x="1783" 
d="M459 936v-832q0 -30 14 -46t49 -25v-33h-399v33q35 9 49 25t14 46v1158q0 30 -14 46t-49 25v33h463v-33q-43 -9 -43 -45q0 -25 28 -53l754 -784v811q0 30 -14 46t-49 25v33h399v-33q-35 -9 -49.5 -24.5t-14.5 -46.5v-1158q0 -29 14.5 -45.5t49.5 -25.5v-33h-428v33
q41 8 41 43q0 12 -9.5 25.5t-37.5 43.5z" />
    <glyph glyph-name="O" unicode="O" horiz-adv-x="1753" 
d="M877 1391q182 0 318.5 -47t244.5 -146q105 -97 163 -231.5t58 -282.5q0 -149 -57.5 -283t-163.5 -231q-207 -195 -563 -195q-357 0 -564 195q-106 97 -163.5 231t-57.5 283q0 148 58.5 283.5t162.5 230.5q214 193 564 193zM877 1159q-211 0 -345.5 -133t-134.5 -342
t134.5 -343t345.5 -134t345 134t134 343q0 207 -134.5 341t-344.5 134z" />
    <glyph glyph-name="P" unicode="P" horiz-adv-x="1566" 
d="M483 553v-449q0 -29 15 -45.5t49 -25.5v-33h-424v33q35 9 49 25t14 46v1158q0 30 -14 46t-49 25v33h850q151 0 238.5 -19.5t152.5 -68.5q69 -53 108 -136.5t39 -180.5q0 -98 -39 -182.5t-108 -135.5q-66 -49 -154.5 -69.5t-236.5 -20.5h-490zM483 778h455q79 0 119.5 6
t70.5 23q36 20 57 61.5t21 92.5q0 49 -21 90t-57 61q-30 17 -70 23t-120 6h-455v-363z" />
    <glyph glyph-name="Q" unicode="Q" horiz-adv-x="1753" 
d="M1448 176l106 -110q38 -40 49 -48t29 -8q8 0 45 15l23 -25l-293 -266l-23 24q21 33 21 45q-1 17 -8.5 28.5t-48.5 59.5l-117 146q-149 -62 -354 -62q-357 0 -564 195q-106 97 -163.5 231t-57.5 283q0 148 57.5 282t163.5 232q208 193 564 193q355 0 563 -193
q106 -98 163.5 -232t57.5 -282q0 -146 -56 -279.5t-157 -228.5zM793 434v29q74 55 163 55q66 0 132.5 -32t162.5 -111q105 133 105 309q0 209 -134 342t-345 133t-345.5 -133t-134.5 -342t134.5 -343t345.5 -134q96 0 186 33q-15 15 -21 24q-58 72 -115 111t-134 59z" />
    <glyph glyph-name="R" unicode="R" horiz-adv-x="1656" 
d="M483 557v-453q0 -29 15 -45.5t49 -25.5v-33h-424v33q35 9 49 25t14 46v1158q0 30 -14 46t-49 25v33h852q156 0 247.5 -18.5t159.5 -63.5q74 -47 115 -132t41 -191q0 -335 -371 -394l265 -377q66 -95 101 -124.5t81 -32.5v-33h-494v33q51 6 51 37q-3 20 -49 86l-274 401
h-365zM483 782h461q100 0 142.5 6t78.5 25q76 44 76 150q0 103 -76 147q-35 20 -75 25.5t-146 5.5h-461v-359z" />
    <glyph glyph-name="S" unicode="S" horiz-adv-x="1474" 
d="M1393 1251l-162 -321l-29 16v15q0 33 -57 73q-84 60 -194 92.5t-224 32.5q-146 0 -232.5 -47t-86.5 -127q0 -36 24.5 -63t67.5 -41q39 -12 62 -15.5t145 -15.5l157 -16q136 -13 224 -40t155 -73q69 -51 108.5 -131.5t39.5 -173.5q0 -201 -172 -321t-461 -120
q-127 0 -230 22t-243 79q-16 6 -56 24l-20 13l-12 4l-11 4q-21 12 -32 12q-15 0 -43 -22l-29 14l147 336l31 -15q-2 -6 -2 -12q0 -54 74 -107t191.5 -86.5t236.5 -33.5q151 0 246.5 55.5t95.5 143.5q0 32 -19.5 58.5t-54.5 39.5q-58 22 -205 37l-153 16q-154 15 -219.5 29.5
t-128.5 46.5q-90 44 -140.5 129.5t-50.5 191.5q0 202 158 319.5t430 117.5q120 0 213.5 -19.5t238.5 -75.5l30 -11.5t32 -12.5q24 -12 41 -19q30 -10 41 -10q19 0 49 23z" />
    <glyph glyph-name="T" unicode="T" horiz-adv-x="1380" 
d="M840 1141v-1037q0 -31 14 -46.5t49 -24.5v-33h-424v33q35 9 49.5 25.5t14.5 45.5v1037h-424q-31 0 -47 -14.5t-25 -49.5h-33v353h33q9 -35 25.5 -49.5t46.5 -14.5h1145q29 0 45.5 14.5t25.5 49.5h33v-353h-33q-9 35 -25.5 49.5t-45.5 14.5h-424z" />
    <glyph glyph-name="U" unicode="U" horiz-adv-x="1671" 
d="M1511 1262v-766q0 -158 -43 -258.5t-135 -155.5q-174 -107 -497 -107q-327 0 -498 107q-92 55 -135 155.5t-43 258.5v766q0 29 -14.5 45.5t-49.5 25.5v33h426v-33q-35 -7 -50 -23.5t-15 -47.5v-682q0 -118 13 -175.5t48 -95.5q94 -102 330 -102q234 0 328 102
q35 38 48 95.5t13 175.5v682q0 30 -14 46t-49 25v33h401v-33q-35 -9 -49.5 -25.5t-14.5 -45.5z" />
    <glyph glyph-name="V" unicode="V" horiz-adv-x="1576" 
d="M799 397l360 801q23 50 23 80q0 23 -15.5 36t-50.5 19v33h469v-33q-44 -4 -61 -23.5t-60 -111.5l-473 -1020q-23 -51 -26.5 -61t-3.5 -27q0 -23 17 -38.5t46 -18.5v-33h-471v33q29 3 46 18.5t17 38.5q0 16 -4 28.5t-24 59.5l-473 1020q-42 91 -59 110t-62 25v33h485v-33
q-35 -6 -50 -19t-15 -36q0 -29 22 -80z" />
    <glyph glyph-name="W" unicode="W" horiz-adv-x="2310" 
d="M1157 963l-313 -791q-21 -47 -24 -55.5t-3 -20.5q0 -44 74 -63v-33h-438v33q67 12 67 67q0 15 -28 88l-392 1008q-29 77 -51.5 102.5t-68.5 34.5v33h473v-33q-34 -8 -49 -20t-15 -35q0 -17 17 -70l270 -723l293 727q18 45 18 62q0 48 -67 59v33h497v-33
q-36 -9 -51.5 -23.5t-15.5 -39.5q0 -20 16 -62l276 -725l271 713q20 59 20 84q0 22 -16 33.5t-55 19.5v33h469v-33q-49 -12 -68.5 -35t-50.5 -102l-391 -1008q-29 -76 -29 -96q0 -23 19 -38.5t53 -20.5v-33h-445v33q32 5 51 21.5t19 41.5v4q0 16 -15 50l-16 38z" />
    <glyph glyph-name="X" unicode="X" horiz-adv-x="1542" 
d="M942 711l414 -535q67 -89 96 -112t82 -31v-33h-543v33q62 9 62 51q0 23 -37 68l-262 340l-250 -328q-41 -53 -41 -74q-1 -25 17 -40t50 -17v-33h-524v33q34 3 52 12.5t41 33.5t81 97l412 520l-379 496q-54 72 -77 96.5t-41.5 33t-59.5 11.5v33h547v-33q-60 -16 -60 -61
q0 -24 45 -80l213 -274l217 274q47 63 47 88q0 43 -69 53v33h534v-33q-43 -3 -68.5 -20.5t-66.5 -71.5q-37 -47 -39 -49z" />
    <glyph glyph-name="Y" unicode="Y" 
d="M879 571v-467q0 -29 15 -45.5t50 -25.5v-33h-428v33q35 9 50.5 25.5t15.5 45.5v467l-443 621q-56 82 -88 108.5t-80 32.5v33h541v-33q-31 -5 -49.5 -21t-18.5 -40q0 -12 6.5 -24.5t34.5 -55.5l248 -367l252 367q41 60 41 80q0 24 -18.5 40t-49.5 21v33h529v-33
q-46 -6 -78 -32.5t-90 -108.5z" />
    <glyph glyph-name="Z" unicode="Z" horiz-adv-x="1462" 
d="M565 225h709q31 0 48 15t26 51h32v-354h-32q-10 35 -26.5 49t-47.5 14h-1192v70l792 1071h-681q-31 0 -47 -14.5t-25 -49.5h-33v353h33q9 -35 25.5 -49.5t46.5 -14.5h1175v-57z" />
    <glyph glyph-name="bracketleft" unicode="[" horiz-adv-x="681" 
d="M135 1475h430q32 0 48.5 14t27.5 49h27v-266h-27q-11 34 -28 48.5t-48 14.5h-147v-1304h135q41 0 59 13t29 50h27v-268h-27q-9 35 -27 50t-49 15h-430v25q64 17 64 70v1392q0 55 -64 72v25z" />
    <glyph glyph-name="backslash" unicode="\" horiz-adv-x="1554" 
d="M518 1192l789 -1016q71 -91 98.5 -113.5t79.5 -29.5v-33h-469v33q61 9 61 51q0 23 -37 68l-802 1040l-58.5 77.5t-36.5 38t-33 20t-42 5.5v33h467v-33q-60 -15 -60 -61q0 -23 43 -80z" />
    <glyph glyph-name="bracketright" unicode="]" horiz-adv-x="681" 
d="M549 1475v-25q-64 -17 -64 -72v-1392q0 -29 15 -45t49 -25v-25h-430q-31 0 -49 -15t-27 -50h-27v268h27q11 -37 29 -50t59 -13h135v1304h-147q-31 0 -48 -14.5t-28 -48.5h-27v266h27q11 -35 27.5 -49t48.5 -14h430z" />
    <glyph glyph-name="asciicircum" unicode="^" horiz-adv-x="1024" 
d="M1085 569h-129l-325 516l-350 -516h-342l589 865h19z" />
    <glyph glyph-name="underscore" unicode="_" horiz-adv-x="1024" 
d="M18 -188h990v-152h-990v152z" />
    <glyph glyph-name="grave" unicode="`" horiz-adv-x="1024" 
d="M260 1530h293v-27q-30 -3 -27 -22q0 -1 4 -13l52 -161q6 -23 15 -30t32 -7v-27h-201v27h4q21 0 21 16q0 6 -7 17l-135 172q-14 18 -22 22.5t-29 5.5v27z" />
    <glyph glyph-name="a" unicode="a" horiz-adv-x="1421" 
d="M948 281h-514l-59 -123q-21 -43 -21 -72q0 -20 17 -35.5t47 -23.5v-27h-412v27q39 8 56.5 24t43.5 68l410 827q23 51 23 82q0 23 -13 37.5t-45 26.5v28h437v-28q-56 -18 -56 -68q0 -32 25 -80l424 -805q35 -66 55 -85.5t61 -26.5v-27h-458v27q68 12 65 63q0 30 -24 76z
M866 438l-182 359l-174 -359h356z" />
    <glyph glyph-name="b" unicode="b" horiz-adv-x="1386" 
d="M98 1120h785q196 0 299.5 -73t103.5 -211q0 -82 -35.5 -134.5t-124.5 -99.5q107 -47 151 -109t44 -165q0 -154 -113 -241t-313 -87h-797v27q34 11 49 28t15 47v916q0 31 -14 47.5t-50 28.5v26zM430 700h408q97 0 136.5 24.5t39.5 84.5t-39.5 84.5t-136.5 24.5h-408v-218z
M430 203h418q201 0 201 147q0 148 -201 148h-418v-295z" />
    <glyph glyph-name="c" unicode="c" horiz-adv-x="1427" 
d="M1194 401l168 -245l-23 -19q-22 19 -39 19q-16 0 -77 -37q-138 -82 -242.5 -113t-241.5 -31q-299 0 -482 160.5t-183 423.5t182.5 424.5t480.5 161.5q138 0 243 -31t243 -113q59 -36 77 -36q15 0 39 16l23 -16l-168 -246l-23 16q3 9 3 17q2 4 2 10q3 52 -144 117
q-125 55 -250 55q-189 0 -312.5 -106t-123.5 -267q0 -163 123.5 -269t312.5 -106q145 0 291 76q57 30 80.5 51.5t22.5 44.5q0 7 -2 11q0 4 -3 16z" />
    <glyph glyph-name="d" unicode="d" horiz-adv-x="1441" 
d="M162 102v916q0 31 -14 47.5t-50 28.5v26h656q157 0 262 -29.5t180 -95.5q172 -146 172 -434q0 -286 -172 -436q-75 -66 -179.5 -95.5t-262.5 -29.5h-656v27q34 11 49 28t15 47zM430 203h287q192 0 285.5 88.5t93.5 269.5q0 180 -93.5 268.5t-285.5 88.5h-287v-715z" />
    <glyph glyph-name="e" unicode="e" horiz-adv-x="1314" 
d="M430 477v-274h711q31 0 48 15t28 50h26v-331h-26q-11 34 -28 48.5t-48 14.5h-1043v27q34 11 49 28t15 47v916q0 31 -14 47.5t-50 28.5v26h1012q32 0 48.5 14t27.5 50h26v-332h-26q-11 37 -27.5 51.5t-48.5 14.5h-680v-246h422q31 0 48.5 14t27.5 49h26v-323h-26
q-11 35 -28 50t-48 15h-422z" />
    <glyph glyph-name="f" unicode="f" horiz-adv-x="1247" 
d="M430 477v-375q0 -31 14.5 -48t49.5 -27v-27h-396v27q34 11 49 28t15 47v916q0 31 -14 47.5t-50 28.5v26h1004q32 0 48.5 14t27.5 50h26v-332h-26q-11 37 -27.5 51.5t-48.5 14.5h-672v-246h422q31 0 48.5 14t27.5 49h26v-323h-26q-11 35 -28 50t-48 15h-422z" />
    <glyph glyph-name="g" unicode="g" horiz-adv-x="1474" 
d="M1108 432h-254q-31 0 -48.5 -14t-27.5 -49h-26v295h26q11 -36 27.5 -50t48.5 -14h532v-29q-63 -17 -63 -82v-235q0 -31 15 -49t48 -27v-22q-154 -88 -320.5 -134.5t-324.5 -46.5q-302 0 -484.5 160t-182.5 424q0 167 87 301t241.5 209.5t347.5 75.5q154 0 309 -49
q17 -5 59 -21q5 -1 7 -2t3.5 -1.5t10.5 -3t24 -7.5q52 -17 64 -17q16 0 39 17l24 -12l-133 -285l-24 12v6q-1 35 -57 71t-142 58.5t-168 22.5q-190 0 -305 -104.5t-115 -276.5t114.5 -269.5t315.5 -97.5q199 0 332 74v172z" />
    <glyph glyph-name="h" unicode="h" horiz-adv-x="1484" 
d="M1055 487h-625v-385q0 -31 14.5 -48t49.5 -27v-27h-396v27q34 11 49 28t15 47v916q0 31 -14.5 47t-49.5 27v28h396v-28q-35 -9 -49.5 -26t-14.5 -48v-328h625v328q0 31 -14.5 47t-49.5 27v28h395v-28q-35 -10 -49 -26.5t-14 -47.5v-916q0 -31 14 -48t49 -27v-27h-395v27
q34 11 49 28t15 47v385z" />
    <glyph glyph-name="i" unicode="i" horiz-adv-x="591" 
d="M430 1018v-916q0 -31 14.5 -48t49.5 -27v-27h-396v27q34 11 49 28t15 47v916q0 31 -14.5 47t-49.5 27v28h396v-28q-35 -9 -49.5 -26t-14.5 -48z" />
    <glyph glyph-name="j" unicode="j" horiz-adv-x="1034" 
d="M6 31l98 305l27 -10q0 -38 23 -58q34 -31 113.5 -55.5t146.5 -24.5q109 0 161 47.5t52 147.5v635q0 31 -14.5 47t-49.5 27v28h395v-28q-35 -9 -49 -26t-14 -48v-639q0 -136 -33.5 -214t-111.5 -122q-123 -68 -295 -68q-78 0 -151 14.5t-195 53.5q-18 6 -31 6
q-22 0 -45 -26z" />
    <glyph glyph-name="k" unicode="k" horiz-adv-x="1402" 
d="M590 512l-160 -131v-279q0 -31 14.5 -48t49.5 -27v-27h-396v27q34 11 49 28t15 47v916q0 31 -14.5 47t-49.5 27v28h396v-28q-35 -9 -49.5 -26t-14.5 -48v-367l422 336q47 38 47 64q0 17 -13 27t-44 16v26h504v-26q-40 -6 -64.5 -22.5t-126.5 -106.5l-379 -301l416 -478
q2 -3 84 -90q35 -36 54 -48t56 -21v-27h-489v27q55 14 55 41v2q0 7 -3.5 12t-28.5 33l-23 26z" />
    <glyph glyph-name="l" unicode="l" horiz-adv-x="1175" 
d="M430 203h627q31 0 48.5 14t27.5 49h26v-329h-26q-10 35 -27.5 49t-48.5 14h-959v27q34 11 49 28t15 47v916q0 31 -14.5 47t-49.5 27v28h396v-28q-35 -9 -49.5 -26t-14.5 -48v-815z" />
    <glyph glyph-name="m" unicode="m" horiz-adv-x="1677" 
d="M813 35l-407 702v-635q0 -31 14 -48t49 -27v-27h-371v27q34 11 49 28t15 47v916q0 31 -14.5 47t-49.5 27v28h471v-28q-47 -16 -47 -56q0 -35 35 -100l279 -471l282 463q47 79 47 112q0 44 -49 52v28h461v-28q-35 -9 -49.5 -26t-14.5 -48v-916q0 -31 14.5 -48t49.5 -27
v-27h-395v27q35 10 49 27t14 48v633z" />
    <glyph glyph-name="n" unicode="n" horiz-adv-x="1523" 
d="M406 737v-635q0 -31 14 -48t49 -27v-27h-371v27q34 11 49 28t15 47v916q0 31 -14.5 47t-49.5 27v28h430v-28q-45 -9 -45 -39q0 -23 33 -56l600 -596v617q0 31 -14 47.5t-49 26.5v28h370v-28q-35 -10 -49 -26.5t-14 -47.5v-916q0 -31 14 -48t49 -27v-27h-401v27
q45 8 45 36q0 13 -12.5 29.5t-55.5 59.5z" />
    <glyph glyph-name="o" unicode="o" 
d="M731 1145q293 0 474 -162t181 -424q0 -261 -181 -422.5t-474 -161.5t-475 161.5t-182 422.5t182 423.5t475 162.5zM731 934q-167 0 -276 -105t-109 -268t109 -269t276 -106t275 105.5t108 269.5q0 163 -108 268t-275 105z" />
    <glyph glyph-name="p" unicode="p" horiz-adv-x="1335" 
d="M430 461v-359q0 -31 14.5 -48t49.5 -27v-27h-396v27q34 11 49 28t15 47v916q0 31 -14 47.5t-50 28.5v26h729q237 0 350 -80t113 -249q0 -167 -114 -248.5t-349 -81.5h-397zM430 664h383q115 0 160 28t45 99q0 72 -44.5 99.5t-160.5 27.5h-383v-254z" />
    <glyph glyph-name="q" unicode="q" horiz-adv-x="1480" 
d="M1214 147l101 -108q39 -39 67 -39q16 0 37 16l19 -18l-242 -223l-18 20q18 21 18 35q0 19 -47 74l-113 129q-134 -58 -305 -58q-293 0 -475 162t-182 422q0 261 182 423.5t475 162.5q192 0 341.5 -73.5t231.5 -206.5t82 -304q0 -256 -172 -414zM664 379v18q64 45 131 45
q111 0 243 -112q76 98 76 231q0 163 -108 268t-275 105t-276 -105t-109 -268t108.5 -269t274.5 -106q69 0 154 29q-65 79 -111.5 114t-107.5 50z" />
    <glyph glyph-name="r" unicode="r" horiz-adv-x="1404" 
d="M430 461v-359q0 -31 14.5 -48t49.5 -27v-27h-396v27q34 11 49 28t15 47v916q0 31 -14 47.5t-50 28.5v26h733q143 0 219 -14.5t134 -52.5q121 -79 121 -260q0 -134 -76 -211t-240 -109l213 -297q58 -82 93 -111.5t79 -37.5v-27h-471v27q29 9 40 18.5t11 26.5q0 24 -30 67
l-226 322h-268zM430 664h404q108 0 153 29t45 98q0 71 -43 99t-155 28h-404v-254z" />
    <glyph glyph-name="s" unicode="s" horiz-adv-x="1261" 
d="M1176 1020l-136 -262l-24 14v10q0 36 -62.5 73.5t-160 62t-191.5 24.5q-123 0 -201.5 -39.5t-78.5 -101.5q0 -50 52 -71.5t201 -31.5l158 -12q236 -19 349.5 -103.5t113.5 -242.5q0 -166 -147 -265.5t-392 -99.5q-144 0 -259 25t-242 82q-13 8 -29 8q-21 0 -37 -24
l-24 10l114 274l27 -10q-2 -4 -2 -8q-2 -36 62 -72t167.5 -59t208.5 -23q132 0 212.5 37.5t80.5 99.5q0 56 -51 79.5t-195 33.5l-158 14q-128 11 -194 26.5t-117 47.5q-64 40 -99.5 108.5t-35.5 153.5q0 167 141 267t377 100q112 0 212 -26t237 -91q43 -18 55 -18
q19 0 43 22z" />
    <glyph glyph-name="t" unicode="t" horiz-adv-x="1165" 
d="M717 918v-816q0 -31 14 -48t49 -27v-27h-395v27q34 11 49 28t15 47v816h-330q-31 0 -48 -15.5t-28 -50.5h-27v332h27q9 -34 26.5 -49t49.5 -15h928q32 0 49 14.5t26 49.5h27v-332h-27q-11 36 -28 51t-47 15h-330z" />
    <glyph glyph-name="u" unicode="u" horiz-adv-x="1413" 
d="M1272 1018v-594q0 -149 -43.5 -238.5t-138.5 -136.5q-142 -74 -385 -74q-235 0 -386 74q-94 47 -137 136.5t-43 238.5v594q0 31 -14 47.5t-49 26.5v28h397v-28q-35 -9 -50 -26t-15 -48v-539q0 -94 16 -144.5t57 -82.5q81 -66 236 -66q156 0 237 66q40 32 56 82t16 145
v539q0 31 -14 47.5t-49 26.5v28h372v-28q-35 -10 -49 -26.5t-14 -47.5z" />
    <glyph glyph-name="v" unicode="v" horiz-adv-x="1331" 
d="M674 354l270 592q23 50 23 76q0 28 -15.5 44.5t-50.5 25.5v28h434v-28q-38 -12 -57 -32t-47 -77l-391 -825q-21 -46 -21 -68q0 -48 66 -63v-27h-439v27q66 12 66 63q0 17 -23 68l-391 825q-28 59 -46 78t-58 31v28h448v-28q-35 -10 -49 -25.5t-14 -42.5q0 -24 24 -78z
" />
    <glyph glyph-name="w" unicode="w" horiz-adv-x="1964" 
d="M979 778l-244 -608q-18 -46 -18 -74q0 -57 65 -69v-27h-415v27q59 15 59 67q0 26 -18 76l-297 764q-34 88 -57 117t-70 41v28h426v-28q-62 -20 -62 -62q0 -18 21 -72l209 -530l208 526q19 49 19 72q0 51 -68 66v28h500v-28q-66 -21 -66 -70q0 -18 17 -64l205 -530
l202 535q15 35 15 59q0 29 -14.5 44t-51.5 26v28h438v-28q-50 -17 -73 -45t-56 -113l-301 -764q-16 -40 -16 -72q0 -58 68 -71v-27h-433v27q36 11 50 27t14 46q0 12 -2 17.5t-21 52.5z" />
    <glyph glyph-name="x" unicode="x" horiz-adv-x="1300" 
d="M801 580l329 -439q42 -56 80 -82t84 -32v-27h-514v27q64 15 64 53q0 20 -35 63l-180 240l-183 -240q-28 -35 -28 -61q0 -37 65 -55v-27h-477v27q49 10 76 30.5t74 83.5l331 426l-290 389q-52 68 -87 97.5t-77 38.5v28h512v-28q-66 -15 -66 -60q0 -22 31 -67l152 -203
l141 190q41 57 41 82q0 44 -66 60v26h488v-26q-55 -12 -79.5 -31.5t-90.5 -106.5z" />
    <glyph glyph-name="y" unicode="y" horiz-adv-x="1226" 
d="M748 492v-390q0 -31 14 -48t49 -27v-27h-395v27q35 10 49 27t14 48v390l-332 456q-56 76 -90.5 106t-79.5 40v26h506v-28q-65 -14 -65 -60q0 -25 47 -88l162 -227l159 227q31 43 39.5 58.5t8.5 29.5q0 23 -15.5 37t-50.5 23v28h481v-26q-44 -10 -79 -40.5t-91 -105.5z
" />
    <glyph glyph-name="z" unicode="z" horiz-adv-x="1247" 
d="M512 203h567q31 0 48 14.5t26 48.5h27v-329h-27q-9 34 -26 48.5t-48 14.5h-1003v59l653 859h-543q-31 0 -48 -14.5t-27 -51.5h-27v332h27q11 -36 27 -50t48 -14h985v-49z" />
    <glyph glyph-name="braceleft" unicode="{" horiz-adv-x="681" 
d="M670 -172h-27q-9 37 -27 50t-59 13h-231q-69 0 -126 48.5t-57 105.5v373q0 22 -1 54q0 52 -5 65q-1 5 -2 8q-11 45 -53 45h-62q-23 0 -34 -14t-19 -50h-24v312h24q8 -36 19 -50t34 -14h62q42 0 53 45q1 2 2 6q4 15 5 68q1 31 1 53v375q0 58 57 106t126 48h231q41 0 59 13
t27 50h27v-276h-27q-9 37 -27 50t-59 13h-82q-51 0 -79.5 -38.5t-28.5 -104.5v-357q0 -44 -17.5 -74.5t-64.5 -68.5q47 -38 64.5 -68.5t17.5 -74.5v-355q0 -66 28.5 -104.5t79.5 -38.5h82q41 0 59 13t27 50h27v-276z" />
    <glyph glyph-name="bar" unicode="|" horiz-adv-x="1024" 
d="M412 1366h202v-1708h-202v1708z" />
    <glyph glyph-name="braceright" unicode="}" horiz-adv-x="681" 
d="M14 -172v276h27q9 -37 27 -50t59 -13h82q51 0 79.5 38.5t28.5 104.5v355q0 44 17.5 74.5t64.5 68.5q-47 38 -64.5 68.5t-17.5 74.5v357q0 66 -28.5 104.5t-79.5 38.5h-82q-41 0 -59 -13t-27 -50h-27v276h27q9 -37 27 -50t59 -13h231q69 0 126 -48t57 -106v-375
q0 -22 1 -54q0 -52 5 -65q1 -5 2 -8q11 -45 53 -45h62q23 0 34 14t19 50h24v-312h-24q-8 36 -19 50t-34 14h-62q-42 0 -53 -45q-1 -2 -2 -6q-4 -13 -5 -67q-1 -32 -1 -54v-373q0 -57 -57 -105.5t-126 -48.5h-231q-41 0 -59 -13t-27 -50h-27z" />
    <glyph glyph-name="asciitilde" unicode="~" horiz-adv-x="1366" 
d="M1040 1503l47 -28q-54 -108 -125.5 -168t-146.5 -60q-34 0 -67.5 9.5t-147.5 50.5q-58 22 -117 22q-42 0 -70.5 -15.5t-68.5 -58.5q-2 -1 -8 -8l-10 -12l-45 29q64 118 129.5 172.5t140.5 54.5q54 0 166 -41q116 -39 157 -39q92 0 166 92z" />
    <glyph glyph-name="exclamdown" unicode="&#xa1;" horiz-adv-x="774" 
d="M518 885v-33q-41 -10 -52 -23t-11 -49q0 -17 4 -45l71 -616q6 -52 16.5 -65t49.5 -21v-33h-418v33q40 8 50 21t16 65l71 616q4 28 4 45q0 36 -11 49t-52 23v33h262zM387 1391q67 0 115.5 -48.5t48.5 -115.5t-48.5 -115.5t-115.5 -48.5t-115.5 48.5t-48.5 115.5
t48.5 115.5t115.5 48.5z" />
    <glyph glyph-name="cent" unicode="&#xa2;" 
d="M705 45v61q-269 22 -428.5 179t-159.5 401t159.5 401t428.5 179v55q0 31 -14.5 47t-49.5 27v26h272v-26q-35 -10 -49 -26.5t-14 -47.5v-55q109 -3 213 -39q82 -29 162 -74l28 -18l29 -17l31 -16q17 -10 30 -10q17 0 41 16l21 -16l-168 -246l-23 16q3 12 3 21
q0 25 -13.5 42t-48.5 36q-85 50 -148.5 70t-156.5 28v-744q81 4 138.5 20.5t127.5 53.5q58 30 80.5 50.5t22.5 45.5q0 7 -2 11q0 5 -3 14l23 16l168 -243l-23 -19q-22 19 -39 19q-12 0 -26 -8q-15 -8 -92 -54q-98 -57 -177.5 -82t-197.5 -35v-59q0 -30 14 -47t49 -27v-26
h-272v26q35 10 49.5 27t14.5 47zM705 326v721q-148 -38 -230 -133t-82 -228t82 -227.5t230 -132.5z" />
    <glyph glyph-name="sterling" unicode="&#xa3;" 
d="M252 805h57q-16 112 -16 172q0 189 146 301.5t392 112.5q143 0 242 -35t227 -133q53 -39 84 -39q14 0 29 10l21 -25l-293 -211l-19 27q19 11 19 33q0 51 -90 95t-193 44q-130 0 -201 -53t-71 -150q0 -34 12 -149h227q31 0 47 14t25 49h33v-323h-33q-9 35 -25 50t-47 15
h-207q9 -71 9 -116q0 -85 -23.5 -138t-87.5 -114q109 28 176 28q91 0 185 -26q93 -21 124 -21q46 0 84.5 28t38.5 62q0 19 -20 39l22 23l287 -221l-18 -23q-19 12 -37 12q-25 0 -111 -57q-71 -49 -128.5 -68.5t-127.5 -19.5q-46 0 -71 3.5t-189 31.5q-70 8 -133 8
q-200 0 -360 -78l-97 215q113 60 156 130t43 194q0 32 -6 108h-82q-31 0 -47 -15t-25 -50h-33v323h33q9 -34 26 -48.5t46 -14.5z" />
    <glyph glyph-name="currency" unicode="&#xa4;" horiz-adv-x="1570" 
d="M1305 305l102 -100q25 -25 45 -25t51 19l23 -23l-234 -235l-22 22q16 31 16 49q0 11 -6.5 25.5t-15.5 21.5l-121 121q-160 -82 -359 -82q-195 0 -358 82l-119 -121q-9 -7 -16.5 -21t-7.5 -22q0 -23 18 -53l-22 -22l-236 235l23 23q32 -19 49 -19q26 0 47 25l102 102
q-108 155 -108 375q0 218 108 377l-102 102q-7 9 -22.5 16t-24.5 7q-15 0 -49 -17l-23 23l236 235l22 -24q-18 -30 -18 -49q0 -23 24 -47l119 -119q154 80 358 80q207 0 359 -82l121 121q22 22 22 47q0 18 -16 49l22 24l234 -235l-23 -23q-28 17 -49 17q-24 0 -47 -23
l-100 -102q108 -153 108 -377t-110 -377zM786 1055q-157 0 -257.5 -105t-100.5 -268q0 -162 101 -267.5t257 -105.5q155 0 256 105t101 268t-101 268t-256 105z" />
    <glyph glyph-name="yen" unicode="&#xa5;" 
d="M582 403h-291q-30 0 -46.5 -17.5t-25.5 -59.5h-33v340h33q9 -36 25.5 -51t46.5 -15h272l-119 238h-235q-29 0 -46 -18.5t-26 -61.5h-33v340h33q9 -35 25 -49.5t47 -14.5h139l-98 158q-79 129 -168 141v33h541v-33q-31 -5 -49.5 -20.5t-18.5 -38.5v-5.5v-4.5t1 -5.5t3 -8
t6.5 -12.5l9.5 -19.5t15 -28.5l143 -363l148 363q30 54 33.5 62t3.5 20q0 24 -18.5 40t-49.5 21v33h528v-33q-86 -12 -168 -141l-98 -158h139q55 0 72 64h33v-340h-33q-9 43 -26 61.5t-46 18.5h-235l-119 -238h272q30 0 46.5 15t25.5 51h33v-340h-33q-9 41 -26 59t-46 18
h-290v-299q0 -29 15 -45.5t50 -25.5v-33h-428v33q35 9 50.5 25.5t15.5 45.5v299z" />
    <glyph glyph-name="brokenbar" unicode="&#xa6;" horiz-adv-x="1024" 
d="M412 1366h202v-725h-202v725zM412 313h202v-655h-202v655z" />
    <glyph glyph-name="section" unicode="&#xa7;" horiz-adv-x="1374" 
d="M592 1090l190 -21q267 -28 382.5 -108.5t115.5 -237.5q0 -91 -36.5 -160t-104.5 -106q85 -60 113 -108.5t28 -133.5q0 -184 -142 -281.5t-411 -97.5q-149 0 -276.5 35.5t-253.5 112.5q-21 14 -35 14q-9 0 -45 -23l-21 13l174 266l23 -14q-10 -20 -10 -35q0 -39 79 -86
q136 -86 369 -86q149 0 240.5 47.5t91.5 124.5q0 55 -63 82.5t-230 46.5l-197 20q-206 22 -305.5 96.5t-99.5 206.5q0 94 37 154t129 115q-89 44 -127.5 100.5t-38.5 144.5q0 168 131.5 263.5t362.5 95.5q106 0 202 -18.5t232 -65.5q38 -10 53 -10q13 0 41 24l22 -10
l-137 -279l-22 13q6 27 6 30q0 27 -68 60q-74 33 -143.5 46t-171.5 13q-141 0 -221 -38t-80 -105q0 -43 48.5 -65.5t168.5 -34.5zM592 578l289 -41q104 41 142 77.5t38 94.5q0 57 -51.5 85.5t-184.5 43.5l-262 30q-98 -38 -143 -81.5t-45 -100.5q0 -55 71 -82q22 -9 146 -26
z" />
    <glyph glyph-name="dieresis" unicode="&#xa8;" horiz-adv-x="1024" 
d="M287 1481q60 0 101.5 -42t41.5 -102t-41.5 -101.5t-101.5 -41.5t-102 41.5t-42 101.5q0 59 42.5 101.5t101.5 42.5zM737 1481q60 0 102 -42t42 -102t-42 -101.5t-102 -41.5t-101.5 41.5t-41.5 101.5q0 59 42.5 101.5t100.5 42.5z" />
    <glyph glyph-name="copyright" unicode="&#xa9;" horiz-adv-x="1808" 
d="M1239 567l119 -180l-25 -18q-18 18 -26 18t-25 -10q-114 -68 -191.5 -92.5t-175.5 -24.5q-218 0 -350.5 116t-132.5 308t132.5 308t350.5 116q98 0 174.5 -25t192.5 -94q17 -10 25 -10t26 18l25 -18l-119 -178l-25 16q3 18 3 19q0 14 -13.5 27t-50.5 36q-105 57 -217 57
q-141 0 -226 -74.5t-85 -197.5t85 -197.5t226 -74.5q114 0 217 57q35 20 49.5 34t14.5 27q0 1 -3 19zM909 1391q238 0 423.5 -89t288.5 -250t103 -368t-103 -368.5t-288.5 -251t-423.5 -89.5t-424 89.5t-289.5 251t-103.5 368.5q0 206 103.5 367t289.5 250.5t424 89.5z
M909 1274q-306 0 -491 -162t-185 -428t185 -428t491 -162q304 0 489 162t185 428t-185 428t-489 162z" />
    <glyph glyph-name="ordfeminine" unicode="&#xaa;" horiz-adv-x="1046" 
d="M193 1337l28 19q13 -10 19 -10q2 0 14 4q35 19 100 30t133 11q142 0 229 -59t87 -156v-302q0 -17 10 -24t39 -12v-27h-170v63q-42 -45 -82 -62t-102 -17q-125 0 -210 59t-85 145t85.5 144.5t211.5 58.5q62 0 100.5 -15.5t81.5 -56.5v54q0 54 -54 86.5t-141 32.5
q-86 0 -163 -25q-31 -10 -31 -18q0 -6 6 -15l4 -8l-29 -16zM512 1106q-85 0 -137.5 -31t-52.5 -82q0 -43 55 -72.5t135 -29.5q72 0 121 29.5t49 72.5q0 51 -47.5 82t-122.5 31zM848 770v-256h-25q-8 36 -19 50t-34 14h-502q-22 0 -33.5 -14.5t-19.5 -49.5h-22v256h22
q7 -35 19 -49t34 -14h502q23 0 35 14t18 49h25z" />
    <glyph glyph-name="guillemotleft" unicode="&#xab;" horiz-adv-x="997" 
d="M846 983l-195 -401l195 -404h-172l-195 404l195 401h172zM489 983l-196 -401l196 -404h-172l-194 404l194 401h172z" />
    <glyph glyph-name="logicalnot" unicode="&#xac;" horiz-adv-x="1024" 
d="M635 0v406h-574v139h902v-545h-328z" />
    <glyph glyph-name="registered" unicode="&#xae;" horiz-adv-x="1818" 
d="M709 600v-260q0 -30 36 -37v-31h-264v31q39 8 39 37v684q0 17 -8.5 25t-30.5 14v31l510 -2q178 0 259 -58.5t81 -187.5q0 -99 -55 -160t-158 -78l150 -213q40 -57 59.5 -73.5t48.5 -16.5v-33h-305v31q31 6 31 16q0 9 -27 48l-162 233h-204zM709 748h264q100 0 135 20
t35 78t-35 78t-135 20h-264v-196zM909 1391q238 0 423.5 -89t288.5 -250t103 -368t-103 -368.5t-288.5 -251t-423.5 -89.5t-424 89.5t-289.5 251t-103.5 368.5q0 206 103.5 367t289.5 250.5t424 89.5zM909 1274q-306 0 -491 -162t-185 -428t185 -428t491 -162q304 0 489 162
t185 428t-185 428t-489 162z" />
    <glyph glyph-name="macron" unicode="&#xaf;" horiz-adv-x="1024" 
d="M819 1501v-270h-26q-9 35 -26 49t-48 14h-414q-31 0 -47.5 -14t-26.5 -49h-26v270h26q10 -37 26.5 -51t47.5 -14h414q31 0 48 15t26 50h26z" />
    <glyph glyph-name="degree" unicode="&#xb0;" horiz-adv-x="819" 
d="M412 1405q131 0 218 -89t87 -222q0 -132 -89 -223t-218 -91t-218.5 91.5t-89.5 224.5q0 127 91 218t219 91zM408 1288q-80 0 -135.5 -58.5t-55.5 -142.5q0 -75 56.5 -132.5t129.5 -57.5q84 0 140.5 55.5t56.5 137.5q0 85 -54.5 141.5t-137.5 56.5z" />
    <glyph glyph-name="plusminus" unicode="&#xb1;" horiz-adv-x="1124" 
d="M618 1356v-502h486v-113h-486v-477h-112v477h-486v113h486v502h112zM23 113h1073v-113h-1073v113z" />
    <glyph glyph-name="twosuperior" unicode="&#xb2;" horiz-adv-x="968" 
d="M313 705h521q19 0 26.5 7.5t13.5 30.5h33v-233h-33q-6 21 -14 28t-26 7h-680q-33 0 -42.5 -5.5t-15.5 -29.5h-33v41q0 139 72 222t264 165l109 45q74 32 106.5 65.5t32.5 77.5q0 50 -37.5 76.5t-109.5 26.5q-86 0 -163.5 -37t-80.5 -80q0 -10 10 -39l-22 -22l-181 180
l25 20q24 -12 37 -12h5t3.5 0.5t3.5 1.5l4 2t5 3.5l5.5 4.5l8.5 6.5t10 8.5q142 114 348 114q158 0 248 -69t90 -191q0 -90 -59.5 -156.5t-184.5 -119.5l-98 -41q-6 -3 -16 -6.5t-26 -10t-28 -10.5q-60 -22 -87 -36.5t-44 -34.5z" />
    <glyph glyph-name="threesuperior" unicode="&#xb3;" horiz-adv-x="968" 
d="M57 1260l25 18q25 -10 37 -10q14 0 31 12q163 100 362 100q163 0 259.5 -65t96.5 -174q0 -108 -100 -164q135 -51 135 -178q0 -123 -109 -195t-298 -72q-169 0 -318 64q-61 27 -74 27q-11 0 -43 -23l-26 12l106 230l31 -13q-4 -12 -4 -16q0 -49 102 -89t226 -40
q94 0 148 30.5t54 82.5q0 108 -194 108q-63 0 -84.5 -8t-26.5 -33h-33v211h33q8 -28 26.5 -35.5t82.5 -7.5q83 0 130.5 26t47.5 72q0 47 -47 73t-133 26q-96 0 -182.5 -32t-88.5 -67q0 -11 11 -30l-27 -19z" />
    <glyph glyph-name="acute" unicode="&#xb4;" horiz-adv-x="1024" 
d="M469 1530h295v-27q-21 -1 -29 -5.5t-22 -22.5l-135 -172q-7 -11 -7 -17q0 -16 21 -16h4v-27h-201v27q22 0 31 7t16 30l52 161q4 12 4 13q2 9 -5 15t-24 7v27z" />
    <glyph glyph-name="mu" unicode="&#xb5;" horiz-adv-x="1179" 
d="M905 1024v-756q0 -83 28 -133.5t73 -50.5q37 0 66.5 40.5t33.5 98.5l55 -2q-22 -120 -85 -184t-161 -64q-76 0 -120.5 45t-69.5 146q-164 -191 -317 -191q-52 0 -94 20t-107 75q0 -61 4 -91t20 -86q26 -88 32.5 -121.5t6.5 -66.5q0 -69 -28 -110.5t-74 -41.5
q-43 0 -71.5 41t-28.5 101q0 44 4.5 71.5t29.5 120.5q25 95 25 156v983h180v-678q0 -107 49.5 -167t137.5 -60q66 0 120.5 35.5t108.5 113.5v756h182z" />
    <glyph glyph-name="paragraph" unicode="&#xb6;" horiz-adv-x="1306" 
d="M641 635h-180q-177 0 -298.5 109.5t-121.5 269.5q0 95 55.5 178t149.5 127q52 24 192 43q36 4 39 4h774v-33q-38 -9 -50.5 -26.5t-12.5 -59.5v-1292q0 -42 12.5 -59.5t50.5 -26.5v-33h-254v1407h-166v-1407h-253v33q38 9 50.5 26.5t12.5 59.5v680z" />
    <glyph glyph-name="periodcentered" unicode="&#xb7;" horiz-adv-x="628" 
d="M313 670q67 0 115.5 -48t48.5 -116t-48.5 -116t-115.5 -48t-115 48t-48 116t48 116t115 48z" />
    <glyph glyph-name="cedilla" unicode="&#xb8;" horiz-adv-x="1024" 
d="M414 -242l49 97q6 9 6 12q6 11 11 13.5t20 2.5q115 0 180 -40t65 -109q0 -76 -60 -121t-163 -45q-110 0 -190 26l22 46q58 -15 95 -15q60 0 95.5 22t35.5 60q0 28 -20 48t-48 20q-41 0 -70 -33z" />
    <glyph glyph-name="onesuperior" unicode="&#xb9;" horiz-adv-x="968" 
d="M293 1061v227h33q4 -12 4 -14q9 -21 24 -21q2 0 8 1t9 1l49 13v30q0 15 -9 23t-32 14v31h280v-31q-24 -6 -32.5 -14t-8.5 -23v-684q0 -15 8.5 -22.5t32.5 -13.5v-31h-280v31q24 6 32.5 13.5t8.5 22.5v502l-51 -12q-21 -5 -29 -12.5t-14 -30.5h-33z" />
    <glyph glyph-name="ordmasculine" unicode="&#xba;" horiz-adv-x="1046" 
d="M522 1391q143 0 231.5 -79t88.5 -206t-88.5 -206t-231.5 -79t-231 79t-88 206t88 206t231 79zM522 1278q-78 0 -128 -48.5t-50 -123.5t50.5 -123.5t127.5 -48.5q78 0 128 48.5t50 123.5t-50 123.5t-128 48.5zM850 770v-256h-25q-8 36 -19 50t-34 14h-502
q-22 0 -33.5 -14.5t-19.5 -49.5h-22v256h22q7 -35 19 -49t34 -14h502q23 0 35 14t18 49h25z" />
    <glyph glyph-name="guillemotright" unicode="&#xbb;" horiz-adv-x="997" 
d="M150 983h172l194 -401l-194 -404h-172l196 404zM506 983h172l194 -401l-194 -404h-172l196 404z" />
    <glyph glyph-name="onequarter" unicode="&#xbc;" horiz-adv-x="2527" 
d="M293 1061v227h33q4 -12 4 -14q9 -21 24 -21q2 0 8 1t9 1l49 13v30q0 15 -9 23t-32 14v31h280v-31q-24 -6 -32.5 -14t-8.5 -23v-684q0 -15 8.5 -22.5t32.5 -13.5v-31h-280v31q24 6 32.5 13.5t8.5 22.5v502l-51 -12q-21 -5 -29 -12.5t-14 -30.5h-33zM1683 1192l-618 -1040
q-25 -43 -25 -60q0 -50 76 -59v-33h-420v33q51 7 74.5 29.5t79.5 113.5l610 1016q29 50 29 76q1 22 -22.5 41t-55.5 24v33h422v-33q-38 -4 -53.5 -12.5t-32.5 -30.5t-64 -98zM2171 135h-453q-36 0 -45.5 -6t-15.5 -31h-31v178l434 453q27 31 27 39q0 15 -33 20v31h356v-31
q-23 -6 -31.5 -13.5t-8.5 -22.5v-471h40q19 0 27 8t14 33h33v-224h-33q-6 22 -14 29.5t-27 7.5h-40v-67q0 -16 8 -23.5t32 -13.5v-31h-280v31q24 6 32.5 14t8.5 23v67zM2171 281v331l-313 -331h313z" />
    <glyph glyph-name="onehalf" unicode="&#xbd;" horiz-adv-x="2527" 
d="M293 1061v227h33q4 -12 4 -14q9 -21 24 -21q2 0 8 1t9 1l49 13v30q0 15 -9 23t-32 14v31h280v-31q-24 -6 -32.5 -14t-8.5 -23v-684q0 -15 8.5 -22.5t32.5 -13.5v-31h-280v31q24 6 32.5 13.5t8.5 22.5v502l-51 -12q-21 -5 -29 -12.5t-14 -30.5h-33zM1683 1192l-618 -1040
q-25 -43 -25 -60q0 -50 76 -59v-33h-420v33q51 7 74.5 29.5t79.5 113.5l610 1016q29 50 29 76q1 22 -22.5 41t-55.5 24v33h422v-33q-38 -4 -53.5 -12.5t-32.5 -30.5t-64 -98zM1870 160h520q19 0 27 7.5t14 29.5h33v-234h-33q-6 22 -14 29.5t-27 7.5h-680q-32 0 -41.5 -6
t-15.5 -31h-33v43q0 139 72 221t264 164l108 45q75 32 107.5 66t32.5 78q0 102 -148 102q-86 0 -163.5 -37t-80.5 -80q0 -7 11 -39l-23 -22l-180 180l25 21q26 -13 36 -13h5t3.5 0.5t3.5 1.5l4 2t5 3.5l5.5 4.5l8.5 6.5t10 8.5q143 115 349 115q158 0 248 -69.5t90 -191.5
q0 -90 -59.5 -156.5t-184.5 -119.5l-98 -41l-28.5 -11l-41.5 -16q-60 -22 -87 -36t-44 -33z" />
    <glyph glyph-name="threequarters" unicode="&#xbe;" horiz-adv-x="2527" 
d="M57 1260l25 18q25 -10 37 -10q14 0 31 12q163 100 362 100q163 0 259.5 -65t96.5 -174q0 -108 -100 -164q135 -51 135 -178q0 -123 -109 -195t-298 -72q-169 0 -318 64q-61 27 -74 27q-11 0 -43 -23l-26 12l106 230l31 -13q-4 -12 -4 -16q0 -49 102 -89t226 -40
q94 0 148 30.5t54 82.5q0 108 -194 108q-63 0 -84.5 -8t-26.5 -33h-33v211h33q8 -28 26.5 -35.5t82.5 -7.5q83 0 130.5 26t47.5 72q0 47 -47 73t-133 26q-96 0 -182.5 -32t-88.5 -67q0 -11 11 -30l-27 -19zM1681 1192l-616 -1040q-27 -47 -27 -60q0 -49 76 -59v-33h-420v33
q52 7 76 29.5t78 113.5l610 1016q28 48 31 76q1 22 -22.5 41t-55.5 24v33h420v-33h-1h-1q-45 -6 -61 -18q-18 -15 -72 -100l-1 -1l-1 -1v-1l-1 -1v-1l-1 -1l-1 -1q-6 -10 -10 -16zM2171 135h-455q-36 0 -45 -6t-14 -31h-33v178l436 453q27 31 27 39q0 15 -33 20v31h356v-31
q-23 -6 -31.5 -13.5t-8.5 -22.5v-471h40q19 0 27 8t14 33h33v-224h-33q-6 22 -14 29.5t-27 7.5h-40v-67q0 -16 8 -23.5t32 -13.5v-31h-280v31q24 6 32.5 14t8.5 23v67zM2171 281v331l-316 -331h316z" />
    <glyph glyph-name="questiondown" unicode="&#xbf;" horiz-adv-x="999" 
d="M788 385l173 -252l-27 -18q-1 1 -3 2l-3 1.5t-2 0.5q-19 12 -35 12q-23 0 -84 -41q-94 -62 -168.5 -88.5t-153.5 -26.5q-162 0 -262 84.5t-100 219.5q0 78 40.5 150t137.5 169q69 66 90 105.5t21 99.5q0 27 -12.5 39.5t-47.5 19.5v33h330v-33q-41 -12 -53.5 -32
t-24.5 -93q-10 -64 -29.5 -101.5t-82.5 -115.5q-56 -71 -75.5 -109t-19.5 -79q0 -66 42.5 -106t113.5 -40q74 0 145.5 47.5t71.5 96.5q0 13 -8 37zM500 1391q68 0 116 -48.5t48 -115.5t-48 -115.5t-116 -48.5t-116 48.5t-48 115.5t48 115.5t116 48.5z" />
    <glyph glyph-name="Agrave" unicode="&#xc0;" horiz-adv-x="1665" 
d="M1122 348h-620l-92 -192q-19 -44 -19 -62q0 -43 66 -61v-33h-451v33q40 8 61.5 28.5t47.5 75.5l501 1051q25 52 25 80q0 45 -57 65v33h483v-33q-59 -15 -59 -59q0 -21 18 -66l522 -1052q32 -66 58 -91.5t67 -31.5v-33h-504v33q66 9 66 61q0 22 -18 62zM1036 535l-221 487
l-225 -487h446zM565 1755h293v-26q-30 -3 -27 -23q0 -1 1 -2.5t2 -4.5t2 -5l51 -162q6 -23 15 -30t32 -7v-27h-201v27h4q21 0 21 16q0 11 -6 17l-136 172q-14 18 -22 23t-29 6v26z" />
    <glyph glyph-name="Aacute" unicode="&#xc1;" horiz-adv-x="1665" 
d="M1122 348h-620l-92 -192q-19 -44 -19 -62q0 -43 66 -61v-33h-451v33q40 8 61.5 28.5t47.5 75.5l501 1051q25 52 25 80q0 45 -57 65v33h483v-33q-59 -15 -59 -59q0 -21 18 -66l522 -1052q32 -66 58 -91.5t67 -31.5v-33h-504v33q66 9 66 61q0 22 -18 62zM1036 535l-221 487
l-225 -487h446zM803 1755h295v-26q-21 -1 -29 -6t-22 -23l-136 -172q-6 -6 -6 -17q0 -16 21 -16h4v-27h-201v27q22 0 31 7t16 30l51 162q1 2 2 5l1.5 4.5t0.5 2.5q2 10 -5 16t-23 7v26z" />
    <glyph glyph-name="Acircumflex" unicode="&#xc2;" horiz-adv-x="1665" 
d="M1122 348h-620l-92 -192q-19 -44 -19 -62q0 -43 66 -61v-33h-451v33q40 8 61.5 28.5t47.5 75.5l501 1051q25 52 25 80q0 45 -57 65v33h483v-33q-59 -15 -59 -59q0 -21 18 -66l522 -1052q32 -66 58 -91.5t67 -31.5v-33h-504v33q66 9 66 61q0 22 -18 62zM1036 535l-221 487
l-225 -487h446zM717 1468h-205v27q25 2 36 8t34 33l127 150q10 13 10 26q0 17 -33 17v26h254v-26q-31 -3 -31 -19q0 -9 17 -29l153 -165q10 -12 18.5 -15.5t26.5 -5.5v-27h-258v27q31 3 31 14q0 9 -16 25l-95 104l-90 -108q-10 -10 -10 -17q0 -16 19 -16q6 0 12 -2v-27z" />
    <glyph glyph-name="Atilde" unicode="&#xc3;" horiz-adv-x="1665" 
d="M1122 348h-620l-92 -192q-19 -44 -19 -62q0 -43 66 -61v-33h-451v33q40 8 61.5 28.5t47.5 75.5l501 1051q25 52 25 80q0 45 -57 65v33h483v-33q-59 -15 -59 -59q0 -21 18 -66l522 -1052q32 -66 58 -91.5t67 -31.5v-33h-504v33q66 9 66 61q0 22 -18 62zM1036 535l-221 487
l-225 -487h446zM1008 1735l131 -93l-13 -24q-15 6 -16 6q-6 0 -11 -5.5t-22 -31.5q-31 -44 -69.5 -71t-71.5 -27q-32 0 -82 20l-141 62q-37 18 -60 18q-20 0 -35.5 -15.5t-17.5 -37.5q0 -12 14 -29l-10 -20l-131 94l10 18q16 -4 19 -4q11 0 30 27q28 47 70 78t78 31
q40 0 78 -17l119 -53q66 -31 90 -31q17 0 32 16t15 35q0 14 -17 31z" />
    <glyph glyph-name="Adieresis" unicode="&#xc4;" horiz-adv-x="1665" 
d="M1122 348h-620l-92 -192q-19 -44 -19 -62q0 -43 66 -61v-33h-451v33q40 8 61.5 28.5t47.5 75.5l501 1051q25 52 25 80q0 45 -57 65v33h483v-33q-59 -15 -59 -59q0 -21 18 -66l522 -1052q32 -66 58 -91.5t67 -31.5v-33h-504v33q66 9 66 61q0 22 -18 62zM1036 535l-221 487
l-225 -487h446zM606 1755q60 0 102 -41.5t42 -101.5t-42 -102t-102 -42t-101.5 42t-41.5 102q0 58 42.5 100.5t100.5 42.5zM1057 1755q60 0 101.5 -41.5t41.5 -101.5t-41.5 -102t-101.5 -42t-102 42t-42 102q0 58 42.5 100.5t101.5 42.5z" />
    <glyph glyph-name="Aring" unicode="&#xc5;" horiz-adv-x="1665" 
d="M823 1847q113 0 192 -58.5t79 -141.5t-79.5 -142t-191.5 -59t-191 59t-79 142t79 141.5t191 58.5zM823 1755q-61 0 -104 -32t-43 -76q0 -45 43 -77t104 -32t104.5 32.5t43.5 76.5t-43.5 76t-104.5 32zM1122 348h-620l-92 -192q-19 -44 -19 -62q0 -43 66 -61v-33h-451v33
q42 7 60.5 25t48.5 79l501 1051q25 52 25 80q0 45 -57 65v33h483v-33q-59 -15 -59 -59q0 -21 18 -66l522 -1052q32 -66 58 -91.5t67 -31.5v-33h-504v33q66 9 66 61q0 22 -18 62zM1036 535l-221 487l-225 -487h446z" />
    <glyph glyph-name="AE" unicode="&#xc6;" horiz-adv-x="2381" 
d="M1014 348h-490l-112 -192q-25 -45 -25 -68q0 -41 59 -55v-33h-473v33q44 8 66 26.5t55 77.5l604 1051q33 56 33 86q0 22 -13 35.5t-46 23.5v33h1493q29 0 45.5 15t25.5 49h33v-353h-33q-9 35 -25.5 49.5t-45.5 14.5h-854v-326h553q30 0 46 15t25 51h33v-346h-33
q-9 34 -25.5 48.5t-45.5 14.5h-553v-373h878q29 0 46 15.5t26 50.5h33v-354h-33q-9 35 -25.5 49t-46.5 14h-1239v33q35 9 49.5 25.5t14.5 45.5v244zM1014 535v606h-43l-338 -606h381z" />
    <glyph glyph-name="Ccedilla" unicode="&#xc7;" horiz-adv-x="1718" 
d="M1448 469l188 -285l-24 -18q-27 27 -45 27q-14 0 -27.5 -6t-56.5 -33l-19 -9l-10 -8l-12 -6l-10 -6q-141 -80 -263.5 -115t-267.5 -35q-242 0 -425.5 87.5t-283.5 248.5t-100 373q0 320 221.5 513.5t587.5 193.5q265 0 496 -131q4 -2 121 -68q27 -18 49 -18q19 0 45 26
l24 -18l-188 -285l-27 18v27q0 29 -25 54.5t-89 62.5q-176 100 -373 100q-243 0 -390 -130.5t-147 -344.5q0 -217 147 -347t390 -130q197 0 373 100q64 37 89 62.5t25 54.5v27zM741 -250l58 111q13 26 18 29.5t25 3.5q133 0 208.5 -46.5t75.5 -126.5q0 -88 -70 -139
t-190 -51q-134 0 -219 31l25 51q66 -14 110 -14q69 0 110.5 25.5t41.5 66.5q0 32 -23 55t-55 23q-46 0 -82 -39z" />
    <glyph glyph-name="Egrave" unicode="&#xc8;" horiz-adv-x="1556" 
d="M483 598v-373h881q29 0 46 15.5t26 50.5h30v-354h-30q-9 35 -25.5 49t-46.5 14h-1241v33q35 9 49 25t14 46v1158q0 30 -14 46t-49 25v33h1216q55 0 72 64h33v-353h-33q-9 35 -25.5 49.5t-46.5 14.5h-856v-326h555q31 0 47 14.5t25 51.5h33v-346h-33q-9 35 -25.5 49
t-46.5 14h-555zM567 1755h293v-26q-15 -2 -21 -7.5t-5 -15.5q0 -1 0.5 -2.5l1.5 -4.5t2 -5l51 -162q6 -23 15 -30t32 -7v-27h-201v27h4q21 0 21 16q0 11 -6 17l-136 172q-14 18 -22 23t-29 6v26z" />
    <glyph glyph-name="Eacute" unicode="&#xc9;" horiz-adv-x="1556" 
d="M483 598v-373h881q29 0 46 15.5t26 50.5h30v-354h-30q-9 35 -25.5 49t-46.5 14h-1241v33q35 9 49 25t14 46v1158q0 30 -14 46t-49 25v33h1216q55 0 72 64h33v-353h-33q-9 35 -25.5 49.5t-46.5 14.5h-856v-326h555q31 0 47 14.5t25 51.5h33v-346h-33q-9 35 -25.5 49
t-46.5 14h-555zM776 1755h295v-26q-21 -1 -29 -6t-22 -23l-135 -172q-6 -6 -6 -17q0 -16 20 -16h4v-27h-201v27q22 0 31.5 7t16.5 30l51 162q1 2 2 5l1.5 4.5t0.5 2.5q2 9 -5 15.5t-24 7.5v26z" />
    <glyph glyph-name="Ecircumflex" unicode="&#xca;" horiz-adv-x="1556" 
d="M483 598v-373h881q29 0 46 15.5t26 50.5h30v-354h-30q-9 35 -25.5 49t-46.5 14h-1241v33q35 9 49 25t14 46v1158q0 30 -14 46t-49 25v33h1216q55 0 72 64h33v-353h-33q-9 35 -25.5 49.5t-46.5 14.5h-856v-326h555q31 0 47 14.5t25 51.5h33v-346h-33q-9 35 -25.5 49
t-46.5 14h-555zM717 1468h-205v27q25 2 36 8t34 33l127 150q10 13 10 26q0 17 -33 17v26h254v-26q-31 -3 -31 -19q0 -9 17 -29l153 -165q10 -12 18.5 -15.5t26.5 -5.5v-27h-258v27q31 3 31 14q0 9 -16 25l-95 104l-90 -108q-10 -10 -10 -17q0 -16 19 -16q6 0 12 -2v-27z" />
    <glyph glyph-name="Edieresis" unicode="&#xcb;" horiz-adv-x="1556" 
d="M483 598v-373h881q29 0 46 15.5t26 50.5h30v-354h-30q-9 35 -25.5 49t-46.5 14h-1241v33q35 9 49 25t14 46v1158q0 30 -14 46t-49 25v33h1216q55 0 72 64h33v-353h-33q-9 35 -25.5 49.5t-46.5 14.5h-856v-326h555q31 0 47 14.5t25 51.5h33v-346h-33q-9 35 -25.5 49
t-46.5 14h-555zM580 1755q60 0 101.5 -41.5t41.5 -101.5t-41.5 -102t-101.5 -42t-102 42t-42 102q0 58 42.5 100.5t101.5 42.5zM1030 1755q60 0 102 -41.5t42 -101.5t-42 -102t-102 -42t-101.5 42t-41.5 102q0 58 42.5 100.5t100.5 42.5z" />
    <glyph glyph-name="Igrave" unicode="&#xcc;" horiz-adv-x="671" 
d="M186 104v1158q0 30 -14 46t-49 25v33h424v-33q-35 -9 -49.5 -24.5t-14.5 -46.5v-1158q0 -29 14.5 -45.5t49.5 -25.5v-33h-424v33q35 9 49 25t14 46zM55 1755h293v-26q-15 -2 -21 -7.5t-5 -15.5l4 -12l51 -162q6 -23 15 -30t32 -7v-27h-201v27h4q21 0 21 16q0 11 -6 17
l-136 172q-14 18 -22 23t-29 6v26z" />
    <glyph glyph-name="Iacute" unicode="&#xcd;" horiz-adv-x="671" 
d="M186 104v1158q0 30 -14 46t-49 25v33h424v-33q-35 -9 -49.5 -24.5t-14.5 -46.5v-1158q0 -29 14.5 -45.5t49.5 -25.5v-33h-424v33q35 9 49 25t14 46zM322 1755h294v-26q-21 -1 -29 -6t-22 -23l-135 -172q-6 -6 -6 -17q0 -16 20 -16h5v-27h-201v27q22 0 31 7t16 30l51 162
q1 2 2 5l1.5 4.5t0.5 2.5q2 10 -5 16t-23 7v26z" />
    <glyph glyph-name="Icircumflex" unicode="&#xce;" horiz-adv-x="671" 
d="M186 104v1158q0 30 -14 46t-49 25v33h424v-33q-35 -9 -49.5 -24.5t-14.5 -46.5v-1158q0 -29 14.5 -45.5t49.5 -25.5v-33h-424v33q35 9 49 25t14 46zM233 1468h-204v27q25 2 35.5 8t33.5 33l127 150q11 15 11 26q0 17 -33 17v26h254v-26q-31 -3 -31 -19q0 -10 16 -29
l154 -165q10 -12 18.5 -15.5t26.5 -5.5v-27h-258v27q31 3 31 14q0 8 -17 25l-94 104l-90 -108q-10 -10 -10 -17q0 -16 18 -16q6 0 12 -2v-27z" />
    <glyph glyph-name="Idieresis" unicode="&#xcf;" horiz-adv-x="671" 
d="M186 104v1158q0 30 -14 46t-49 25v33h424v-33q-35 -9 -49.5 -24.5t-14.5 -46.5v-1158q0 -29 14.5 -45.5t49.5 -25.5v-33h-424v33q35 9 49 25t14 46zM152 1755q60 0 101.5 -41.5t41.5 -101.5t-41.5 -102t-101.5 -42t-102 42t-42 102q0 58 42.5 100.5t101.5 42.5zM520 1755
q60 0 102 -41.5t42 -101.5t-42 -102t-102 -42t-101.5 42t-41.5 102q0 58 42.5 100.5t100.5 42.5z" />
    <glyph glyph-name="Eth" unicode="&#xd0;" horiz-adv-x="1716" 
d="M188 578h-69q-29 0 -46 -15.5t-26 -50.5h-33v340h33q9 -35 25.5 -49.5t46.5 -14.5h69v474q0 30 -14 46t-49 25v33h758q192 0 313 -33.5t213 -111.5q217 -186 217 -537q0 -355 -217 -539q-92 -78 -213.5 -111.5t-312.5 -33.5h-758v33q35 9 49 25t14 46v474zM485 788h308
q30 0 46 15t25 49h33v-340h-33q-9 35 -25.5 50.5t-45.5 15.5h-308v-353h373q241 0 352 110t111 349q0 236 -112 346.5t-351 110.5h-373v-353z" />
    <glyph glyph-name="Ntilde" unicode="&#xd1;" horiz-adv-x="1783" 
d="M459 936v-832q0 -30 14 -46t49 -25v-33h-399v33q35 9 49 25t14 46v1158q0 30 -14 46t-49 25v33h463v-33q-43 -9 -43 -45q0 -25 28 -53l754 -784v811q0 30 -14 46t-49 25v33h399v-33q-35 -9 -49.5 -24.5t-14.5 -46.5v-1158q0 -29 14.5 -45.5t49.5 -25.5v-33h-428v33
q41 8 41 43q0 12 -9.5 25.5t-37.5 43.5zM1067 1735l131 -93l-12 -24q-15 6 -17 6q-6 0 -10 -5t-22 -32q-31 -44 -70 -71t-72 -27q-32 0 -82 20l-141 62q-37 18 -59 18q-20 0 -36.5 -15.5t-17.5 -37.5q0 -11 15 -29l-10 -20l-132 94l11 18q16 -4 18 -4q12 0 31 27
q28 47 70 78t77 31q40 0 78 -17l119 -53q66 -31 90 -31q17 0 32 16t15 35q0 15 -16 31z" />
    <glyph glyph-name="Ograve" unicode="&#xd2;" horiz-adv-x="1753" 
d="M877 1391q182 0 318.5 -47t244.5 -146q105 -97 163 -231.5t58 -282.5q0 -149 -57.5 -283t-163.5 -231q-207 -195 -563 -195q-357 0 -564 195q-106 97 -163.5 231t-57.5 283q0 148 58.5 283.5t162.5 230.5q214 193 564 193zM877 1159q-211 0 -345.5 -133t-134.5 -342
t134.5 -343t345.5 -134t345 134t134 343q0 207 -134.5 341t-344.5 134zM625 1755h293v-26q-30 -3 -27 -23q0 -1 0.5 -2.5l1.5 -4.5t2 -5l51 -162q6 -23 15 -30t32 -7v-27h-200v27h4q20 0 20 16q0 11 -6 17l-135 172q-14 18 -22 23t-29 6v26z" />
    <glyph glyph-name="Oacute" unicode="&#xd3;" horiz-adv-x="1753" 
d="M877 1391q182 0 318.5 -47t244.5 -146q105 -97 163 -231.5t58 -282.5q0 -149 -57.5 -283t-163.5 -231q-207 -195 -563 -195q-357 0 -564 195q-106 97 -163.5 231t-57.5 283q0 148 58.5 283.5t162.5 230.5q214 193 564 193zM877 1159q-211 0 -345.5 -133t-134.5 -342
t134.5 -343t345.5 -134t345 134t134 343q0 207 -134.5 341t-344.5 134zM836 1755h294v-26q-21 -1 -29 -6t-22 -23l-135 -172q-6 -6 -6 -17q0 -16 20 -16h5v-27h-201v27q22 0 31 7t16 30l51 162q1 2 2 5l1.5 4.5t0.5 2.5q2 10 -5 16t-23 7v26z" />
    <glyph glyph-name="Ocircumflex" unicode="&#xd4;" horiz-adv-x="1753" 
d="M877 1391q182 0 318.5 -47t244.5 -146q105 -97 163 -231.5t58 -282.5q0 -149 -57.5 -283t-163.5 -231q-207 -195 -563 -195q-357 0 -564 195q-106 97 -163.5 231t-57.5 283q0 148 58.5 283.5t162.5 230.5q214 193 564 193zM877 1159q-211 0 -345.5 -133t-134.5 -342
t134.5 -343t345.5 -134t345 134t134 343q0 207 -134.5 341t-344.5 134zM774 1468h-205v27q25 2 36 8t34 33l127 150q10 13 10 26q0 17 -33 17v26h254v-26q-30 -3 -30 -19q0 -10 16 -29l154 -165q10 -12 18.5 -15.5t26.5 -5.5v-27h-258v27q30 3 30 14q0 9 -16 25l-94 104
l-90 -108q-11 -11 -11 -17q0 -16 19 -16q6 0 12 -2v-27z" />
    <glyph glyph-name="Otilde" unicode="&#xd5;" horiz-adv-x="1753" 
d="M877 1391q182 0 318.5 -47t244.5 -146q105 -97 163 -231.5t58 -282.5q0 -149 -57.5 -283t-163.5 -231q-207 -195 -563 -195q-357 0 -564 195q-106 97 -163.5 231t-57.5 283q0 148 58.5 283.5t162.5 230.5q214 193 564 193zM877 1159q-211 0 -345.5 -133t-134.5 -342
t134.5 -343t345.5 -134t345 134t134 343q0 207 -134.5 341t-344.5 134zM1079 1735l131 -93l-12 -24q-15 6 -16 6q-6 0 -11 -5.5t-22 -31.5q-31 -44 -69.5 -71t-71.5 -27q-32 0 -82 20l-142 62q-37 18 -59 18q-20 0 -35.5 -15.5t-17.5 -37.5q0 -12 14 -29l-10 -20l-131 94
l10 18q16 -4 18 -4q12 0 31 27q28 47 70 78t78 31q39 0 77 -17l119 -53q66 -31 90 -31q17 0 32 16t15 35q0 15 -16 31z" />
    <glyph glyph-name="Odieresis" unicode="&#xd6;" horiz-adv-x="1753" 
d="M877 1391q182 0 318.5 -47t244.5 -146q105 -97 163 -231.5t58 -282.5q0 -149 -57.5 -283t-163.5 -231q-207 -195 -563 -195q-357 0 -564 195q-106 97 -163.5 231t-57.5 283q0 148 58.5 283.5t162.5 230.5q214 193 564 193zM877 1159q-211 0 -345.5 -133t-134.5 -342
t134.5 -343t345.5 -134t345 134t134 343q0 207 -134.5 341t-344.5 134zM651 1755q60 0 102 -41.5t42 -101.5t-42 -102t-102 -42t-101.5 42t-41.5 102q0 58 42 100.5t101 42.5zM1102 1755q60 0 101.5 -41.5t41.5 -101.5t-41.5 -102t-101.5 -42t-102 42t-42 102
q0 58 42.5 100.5t101.5 42.5z" />
    <glyph glyph-name="multiply" unicode="&#xd7;" horiz-adv-x="1570" 
d="M784 545l-276 -277q-21 -25 -21 -43q0 -13 19 -49l-21 -22l-229 229l20 23q38 -21 52 -21q20 0 41 21l276 276l-276 276q-21 21 -41 21t-52 -18l-20 20l229 229l21 -20q-19 -36 -19 -51q0 -20 21 -41l276 -277l277 277q20 20 20 41q0 19 -18 51l20 20l230 -229l-21 -20
q-32 18 -51 18q-20 0 -41 -21l-276 -276l276 -276q18 -21 41 -21q18 0 51 21l21 -23l-230 -229l-20 22q18 35 18 49q0 23 -20 43z" />
    <glyph glyph-name="Oslash" unicode="&#xd8;" horiz-adv-x="1753" 
d="M1456 1294l-51 -65q258 -214 258 -547q0 -148 -57.5 -281.5t-163.5 -230.5q-210 -195 -565 -195q-218 0 -385 74q-46 -61 -46 -84q0 -48 72 -63v-39h-424v39q45 7 70.5 20.5t55.5 45.5t89 108l45 57q-262 218 -262 551q0 148 57.5 282t163.5 232q208 193 564 193
q221 0 393 -78q39 52 39 78t-19 44.5t-53 26.5v39h422v-39q-63 -7 -89.5 -29.5t-113.5 -138.5zM1235 1010l-582 -754q64 -28 111.5 -38.5t112.5 -10.5q212 0 346.5 133t134.5 342q0 95 -25.5 162t-97.5 166zM522 350l588 756q-68 31 -115.5 42t-117.5 11q-211 0 -345.5 -133
t-134.5 -342q0 -96 25.5 -164t99.5 -170z" />
    <glyph glyph-name="Ugrave" unicode="&#xd9;" horiz-adv-x="1671" 
d="M1511 1262v-766q0 -158 -43 -258.5t-135 -155.5q-174 -107 -497 -107q-327 0 -498 107q-92 55 -135 155.5t-43 258.5v766q0 29 -14.5 45.5t-49.5 25.5v33h426v-33q-35 -7 -50 -23.5t-15 -47.5v-682q0 -118 13 -175.5t48 -95.5q94 -102 330 -102q234 0 328 102
q35 38 48 95.5t13 175.5v682q0 30 -14 46t-49 25v33h401v-33q-35 -9 -49.5 -25.5t-14.5 -45.5zM610 1755h293v-26q-15 -2 -21 -7.5t-5 -15.5q0 -1 0.5 -2.5l1.5 -4.5t2 -5l51 -162q6 -23 15 -30t32 -7v-27h-201v27h4q21 0 21 16q0 11 -6 17l-135 172q-14 18 -22.5 23
t-29.5 6v26z" />
    <glyph glyph-name="Uacute" unicode="&#xda;" horiz-adv-x="1671" 
d="M1511 1262v-766q0 -158 -43 -258.5t-135 -155.5q-174 -107 -497 -107q-327 0 -498 107q-92 55 -135 155.5t-43 258.5v766q0 29 -14.5 45.5t-49.5 25.5v33h426v-33q-35 -7 -50 -23.5t-15 -47.5v-682q0 -118 13 -175.5t48 -95.5q94 -102 330 -102q234 0 328 102
q35 38 48 95.5t13 175.5v682q0 30 -14 46t-49 25v33h401v-33q-35 -9 -49.5 -25.5t-14.5 -45.5zM766 1755h295v-26q-21 -1 -29 -6t-22 -23l-136 -172q-6 -6 -6 -17q0 -16 21 -16h4v-27h-201v27q22 0 31 7t16 30l52 162q1 2 2 5l1.5 4.5t0.5 2.5q2 9 -5 15.5t-24 7.5v26z" />
    <glyph glyph-name="Ucircumflex" unicode="&#xdb;" horiz-adv-x="1671" 
d="M1511 1262v-766q0 -158 -43 -258.5t-135 -155.5q-174 -107 -497 -107q-327 0 -498 107q-92 55 -135 155.5t-43 258.5v766q0 29 -14.5 45.5t-49.5 25.5v33h426v-33q-35 -7 -50 -23.5t-15 -47.5v-682q0 -118 13 -175.5t48 -95.5q94 -102 330 -102q234 0 328 102
q35 38 48 95.5t13 175.5v682q0 30 -14 46t-49 25v33h401v-33q-35 -9 -49.5 -25.5t-14.5 -45.5zM733 1468h-205v27q25 2 36 8t34 33l127 150q10 13 10 26q0 17 -33 17v26h254v-26q-30 -3 -30 -19q0 -10 16 -29l154 -165q10 -12 18.5 -15.5t26.5 -5.5v-27h-258v27q30 3 30 14
q0 9 -16 25l-94 104l-90 -108q-11 -11 -11 -17q0 -16 19 -16q6 0 12 -2v-27z" />
    <glyph glyph-name="Udieresis" unicode="&#xdc;" horiz-adv-x="1671" 
d="M1511 1262v-766q0 -158 -43 -258.5t-135 -155.5q-174 -107 -497 -107q-327 0 -498 107q-92 55 -135 155.5t-43 258.5v766q0 29 -14.5 45.5t-49.5 25.5v33h426v-33q-35 -7 -50 -23.5t-15 -47.5v-682q0 -118 13 -175.5t48 -95.5q94 -102 330 -102q234 0 328 102
q35 38 48 95.5t13 175.5v682q0 30 -14 46t-49 25v33h401v-33q-35 -9 -49.5 -25.5t-14.5 -45.5zM610 1755q60 0 102 -41.5t42 -101.5t-42 -102t-102 -42t-101.5 42t-41.5 102q0 58 42.5 100.5t100.5 42.5zM1061 1755q60 0 101.5 -41.5t41.5 -101.5t-41.5 -102t-101.5 -42
t-101.5 42t-41.5 102q0 58 42 100.5t101 42.5z" />
    <glyph glyph-name="Yacute" unicode="&#xdd;" 
d="M879 571v-467q0 -29 15 -45.5t50 -25.5v-33h-428v33q35 9 50.5 25.5t15.5 45.5v467l-443 621q-56 82 -88 108.5t-80 32.5v33h541v-33q-31 -5 -49.5 -21t-18.5 -40q0 -12 6.5 -24.5t34.5 -55.5l248 -367l252 367q41 60 41 80q0 24 -18.5 40t-49.5 21v33h529v-33
q-46 -6 -78 -32.5t-90 -108.5zM662 1755h294v-26q-21 -1 -30 -6.5t-21 -22.5l-135 -172q-8 -12 -8 -17q0 -16 22 -16h4v-27h-200v27q22 0 31 7t16 30l51 162q2 4 2 12q0 20 -26 23v26z" />
    <glyph glyph-name="Thorn" unicode="&#xde;" horiz-adv-x="1464" 
d="M483 1161h387q151 0 239 -19.5t153 -68.5q69 -53 108 -136.5t39 -180.5q0 -98 -39 -182.5t-108 -135.5q-66 -49 -155 -69.5t-237 -20.5h-387v-244q0 -29 14.5 -45.5t49.5 -25.5v-33h-424v33q35 9 49 25t14 46v1158q0 30 -14 46t-49 25v33h424v-33q-35 -9 -49.5 -24.5
t-14.5 -46.5v-101zM483 573h361q78 0 118 6t72 23q36 20 57 61.5t21 92.5q0 49 -21 90t-57 61q-32 17 -71.5 23t-118.5 6h-361v-363z" />
    <glyph glyph-name="germandbls" unicode="&#xdf;" horiz-adv-x="2523" 
d="M1176 1020l-136 -262l-24 14v10q0 36 -62.5 73.5t-160 62t-191.5 24.5q-123 0 -201.5 -39.5t-78.5 -101.5q0 -50 52 -71.5t201 -31.5l158 -12q236 -19 349.5 -103.5t113.5 -242.5q0 -166 -147 -265.5t-392 -99.5q-144 0 -259 25t-242 82q-13 8 -29 8q-21 0 -37 -24
l-24 10l114 274l27 -10q-2 -4 -2 -8q-2 -36 62 -72t167.5 -59t208.5 -23q132 0 212.5 37.5t80.5 99.5q0 56 -51 79.5t-195 33.5l-158 14q-128 11 -194 26.5t-117 47.5q-64 40 -99.5 108.5t-35.5 153.5q0 167 141 267t377 100q112 0 212 -26t237 -91q43 -18 55 -18
q19 0 43 22zM2437 1020l-135 -262l-25 14v10q0 36 -62.5 73.5t-159.5 62t-191 24.5q-123 0 -202 -39.5t-79 -101.5q0 -50 52.5 -71.5t201.5 -31.5l156 -12q238 -19 351.5 -103.5t113.5 -242.5q0 -166 -147.5 -265.5t-393.5 -99.5q-142 0 -258 25t-244 82q-11 8 -26 8
q-21 0 -37 -24l-25 10l115 274l24 -10v-8q0 -37 64 -73t166.5 -58.5t208.5 -22.5q132 0 212.5 37.5t80.5 99.5q0 56 -51 79.5t-195 33.5l-158 14q-128 11 -194 26.5t-117 47.5q-64 40 -99.5 108.5t-35.5 153.5q0 167 141 267t377 100q112 0 211.5 -26t236.5 -91
q44 -18 56 -18q18 0 40 22z" />
    <glyph glyph-name="agrave" unicode="&#xe0;" horiz-adv-x="1421" 
d="M948 281h-514l-59 -123q-21 -43 -21 -72q0 -20 17 -35.5t47 -23.5v-27h-412v27q39 8 56.5 24t43.5 68l410 827q23 51 23 82q0 23 -13 37.5t-45 26.5v28h437v-28q-56 -18 -56 -68q0 -32 25 -80l424 -805q35 -66 55 -85.5t61 -26.5v-27h-458v27q68 12 65 63q0 30 -24 76z
M866 438l-182 359l-174 -359h356zM444 1530h293v-27q-15 -2 -21 -7t-5 -15q0 -1 4 -13l51 -161q6 -23 15 -30t32 -7v-27h-201v27h4q21 0 21 16q0 8 -6 17l-135 172q-14 17 -22 22t-30 6v27z" />
    <glyph glyph-name="aacute" unicode="&#xe1;" horiz-adv-x="1421" 
d="M948 281h-514l-59 -123q-21 -43 -21 -72q0 -20 17 -35.5t47 -23.5v-27h-412v27q39 8 56.5 24t43.5 68l410 827q23 51 23 82q0 23 -13 37.5t-45 26.5v28h437v-28q-56 -18 -56 -68q0 -32 25 -80l424 -805q35 -66 55 -85.5t61 -26.5v-27h-458v27q68 12 65 63q0 30 -24 76z
M866 438l-182 359l-174 -359h356zM682 1530h295v-27q-21 -1 -29 -5.5t-22 -22.5l-135 -172q-7 -11 -7 -17q0 -16 21 -16h4v-27h-201v27q22 0 31 7t16 30l52 161q4 12 4 13q2 9 -5 15t-24 7v27z" />
    <glyph glyph-name="acircumflex" unicode="&#xe2;" horiz-adv-x="1421" 
d="M948 281h-514l-59 -123q-21 -43 -21 -72q0 -20 17 -35.5t47 -23.5v-27h-412v27q39 8 56.5 24t43.5 68l410 827q23 51 23 82q0 23 -13 37.5t-45 26.5v28h437v-28q-56 -18 -56 -68q0 -32 25 -80l424 -805q35 -66 55 -85.5t61 -26.5v-27h-458v27q68 12 65 63q0 30 -24 76z
M866 438l-182 359l-174 -359h356zM610 1243h-204v27q25 2 35.5 8t33.5 35l127 149q10 10 10 23q0 18 -26 18h-6v27h254v-27q-31 -3 -31 -16q0 -15 16 -31l154 -166q10 -11 18.5 -14.5t26.5 -5.5v-27h-258v27q31 3 31 16q0 6 -17 23l-94 106l-90 -108q-10 -13 -10 -19
q0 -16 18 -16q6 0 12 -2v-27z" />
    <glyph glyph-name="atilde" unicode="&#xe3;" horiz-adv-x="1421" 
d="M948 281h-514l-59 -123q-21 -43 -21 -72q0 -20 17 -35.5t47 -23.5v-27h-412v27q39 8 56.5 24t43.5 68l410 827q23 51 23 82q0 23 -13 37.5t-45 26.5v28h437v-28q-56 -18 -56 -68q0 -32 25 -80l424 -805q35 -66 55 -85.5t61 -26.5v-27h-458v27q68 12 65 63q0 30 -24 76z
M866 438l-182 359l-174 -359h356zM913 1481l131 -95l-12 -24q-15 6 -16 6q-6 0 -11 -5.5t-22 -31.5q-69 -98 -145 -98q-31 0 -78 20l-142 62q-37 18 -59 18q-20 0 -35.5 -15.5t-17.5 -37.5q0 -12 14 -29l-10 -20l-131 94l10 18q8 -4 19 -4q6 0 10.5 3.5t7.5 7t12 16.5
q26 46 69.5 77.5t78.5 31.5q40 0 78 -17l118 -53q68 -31 90 -31q17 0 32.5 16t15.5 35q0 14 -17 31z" />
    <glyph glyph-name="adieresis" unicode="&#xe4;" horiz-adv-x="1421" 
d="M948 281h-514l-59 -123q-21 -43 -21 -72q0 -20 17 -35.5t47 -23.5v-27h-412v27q39 8 56.5 24t43.5 68l410 827q23 51 23 82q0 23 -13 37.5t-45 26.5v28h437v-28q-56 -18 -56 -68q0 -32 25 -80l424 -805q35 -66 55 -85.5t61 -26.5v-27h-458v27q68 12 65 63q0 30 -24 76z
M866 438l-182 359l-174 -359h356zM485 1481q60 0 102 -42t42 -102t-42 -101.5t-102 -41.5t-101.5 41.5t-41.5 101.5q0 59 42.5 101.5t100.5 42.5zM936 1481q60 0 101.5 -42t41.5 -102t-41.5 -101.5t-101.5 -41.5t-101.5 41.5t-41.5 101.5q0 59 42.5 101.5t100.5 42.5z" />
    <glyph glyph-name="aring" unicode="&#xe5;" horiz-adv-x="1421" 
d="M700 1571q102 0 174 -53.5t72 -128.5q0 -76 -72.5 -130.5t-173.5 -54.5t-173 54.5t-72 130.5q0 75 71.5 128.5t173.5 53.5zM700 1493q-58 0 -99.5 -31.5t-41.5 -75.5q0 -43 41.5 -73.5t99.5 -30.5t100 30.5t42 73.5q0 44 -41.5 75.5t-100.5 31.5zM948 281h-514l-59 -123
q-21 -43 -21 -72q0 -20 17 -35.5t47 -23.5v-27h-412v27q39 8 56.5 24t43.5 68l410 827q23 51 23 82q0 23 -13 37.5t-45 26.5v28h437v-28q-56 -18 -56 -68q0 -32 25 -80l424 -805q35 -66 55 -85.5t61 -26.5v-27h-458v27q68 12 65 63q0 30 -24 76zM866 438l-182 359l-174 -359
h356z" />
    <glyph glyph-name="ae" unicode="&#xe6;" horiz-adv-x="2088" 
d="M952 281h-405l-78 -127q-29 -47 -29 -70q0 -44 58 -57v-27h-441v27q40 8 61.5 24.5t51.5 65.5l500 827q37 60 37 88q2 21 -11.5 34.5t-46.5 25.5v28h1252q32 0 48 14t27 50h27v-332h-27q-11 36 -28 51t-47 15h-680v-246h421q31 0 49 15t27 48h27v-323h-27q-9 35 -27 50
t-49 15h-421v-274h710q31 0 48.5 14.5t27.5 50.5h27v-331h-27q-10 35 -27.5 49t-48.5 14h-1042v27q35 11 49 27t14 48v179zM952 438v480h-32l-277 -480h309z" />
    <glyph glyph-name="ccedilla" unicode="&#xe7;" horiz-adv-x="1427" 
d="M1194 401l168 -245l-23 -19q-22 19 -39 19q-16 0 -77 -37q-138 -82 -242.5 -113t-241.5 -31q-299 0 -482 160.5t-183 423.5t182.5 424.5t480.5 161.5q138 0 243 -31t243 -113q59 -36 77 -36q15 0 39 16l23 -16l-168 -246l-23 16q3 9 3 17q2 4 2 10q3 52 -144 117
q-125 55 -250 55q-189 0 -312.5 -106t-123.5 -267q0 -163 123.5 -269t312.5 -106q145 0 291 76q57 30 80.5 51.5t22.5 44.5q0 7 -2 11q0 4 -3 16zM616 -242l50 97q6 9 6 12q6 11 10.5 13.5t19.5 2.5q115 0 180.5 -40t65.5 -109q0 -76 -60 -121t-163 -45q-110 0 -190 26
l22 46q59 -15 94 -15q60 0 95.5 22t35.5 60q0 28 -19.5 48t-47.5 20q-44 0 -70 -33z" />
    <glyph glyph-name="egrave" unicode="&#xe8;" horiz-adv-x="1314" 
d="M430 477v-274h711q31 0 48 15t28 50h26v-331h-26q-11 34 -28 48.5t-48 14.5h-1043v27q34 11 49 28t15 47v916q0 31 -14 47.5t-50 28.5v26h1012q32 0 48.5 14t27.5 50h26v-332h-26q-11 37 -27.5 51.5t-48.5 14.5h-680v-246h422q31 0 48.5 14t27.5 49h26v-323h-26
q-11 35 -28 50t-48 15h-422zM432 1530h293v-27q-30 -3 -27 -22q0 -1 4 -13l52 -161q6 -23 15 -30t32 -7v-27h-201v27h4q21 0 21 16q0 6 -7 17l-135 172q-14 18 -22 22.5t-29 5.5v27z" />
    <glyph glyph-name="eacute" unicode="&#xe9;" horiz-adv-x="1314" 
d="M430 477v-274h711q31 0 48 15t28 50h26v-331h-26q-11 34 -28 48.5t-48 14.5h-1043v27q34 11 49 28t15 47v916q0 31 -14 47.5t-50 28.5v26h1012q32 0 48.5 14t27.5 50h26v-332h-26q-11 37 -27.5 51.5t-48.5 14.5h-680v-246h422q31 0 48.5 14t27.5 49h26v-323h-26
q-11 35 -28 50t-48 15h-422zM643 1530h295v-27q-21 -1 -29 -5.5t-22 -22.5l-135 -172q-7 -11 -7 -17q0 -16 21 -16h4v-27h-201v27q22 0 31 7t16 30l52 161q4 12 4 13q2 9 -5 15t-24 7v27z" />
    <glyph glyph-name="ecircumflex" unicode="&#xea;" horiz-adv-x="1314" 
d="M430 477v-274h711q31 0 48 15t28 50h26v-331h-26q-11 34 -28 48.5t-48 14.5h-1043v27q34 11 49 28t15 47v916q0 31 -14 47.5t-50 28.5v26h1012q32 0 48.5 14t27.5 50h26v-332h-26q-11 37 -27.5 51.5t-48.5 14.5h-680v-246h422q31 0 48.5 14t27.5 49h26v-323h-26
q-11 35 -28 50t-48 15h-422zM582 1243h-205v27q25 2 35.5 8t33.5 35l127 149q11 11 11 23q0 18 -27 18h-6v27h254v-27q-31 -3 -31 -16q0 -14 17 -31l153 -166q10 -11 18.5 -14.5t26.5 -5.5v-27h-258v27q31 3 31 16q0 6 -17 23l-94 106l-90 -108q-10 -13 -10 -19
q0 -16 18 -16q7 0 13 -2v-27z" />
    <glyph glyph-name="edieresis" unicode="&#xeb;" horiz-adv-x="1314" 
d="M430 477v-274h711q31 0 48 15t28 50h26v-331h-26q-11 34 -28 48.5t-48 14.5h-1043v27q34 11 49 28t15 47v916q0 31 -14 47.5t-50 28.5v26h1012q32 0 48.5 14t27.5 50h26v-332h-26q-11 37 -27.5 51.5t-48.5 14.5h-680v-246h422q31 0 48.5 14t27.5 49h26v-323h-26
q-11 35 -28 50t-48 15h-422zM459 1481q60 0 101.5 -42t41.5 -102t-41.5 -101.5t-101.5 -41.5t-102 41.5t-42 101.5q0 59 42.5 101.5t101.5 42.5zM909 1481q60 0 102 -42t42 -102t-42 -101.5t-102 -41.5t-101.5 41.5t-41.5 101.5q0 59 42.5 101.5t100.5 42.5z" />
    <glyph glyph-name="igrave" unicode="&#xec;" horiz-adv-x="591" 
d="M432 1018v-916q0 -31 14.5 -48t49.5 -27v-27h-396v27q34 11 49 28t15 47v916q0 31 -14.5 47t-49.5 27v28h396v-28q-35 -9 -49.5 -26t-14.5 -48zM31 1530h293v-27q-30 -3 -27 -22q0 -1 4 -13l51 -161q6 -23 15 -30t32 -7v-27h-200v27h4q20 0 20 16q0 8 -6 17l-135 172
q-14 18 -22 22.5t-29 5.5v27z" />
    <glyph glyph-name="iacute" unicode="&#xed;" horiz-adv-x="591" 
d="M430 1018v-916q0 -31 14.5 -48t49.5 -27v-27h-396v27q34 11 49 28t15 47v916q0 31 -14.5 47t-49.5 27v28h396v-28q-35 -9 -49.5 -26t-14.5 -48zM268 1530h295v-27q-21 -1 -29 -5.5t-22 -22.5l-135 -172q-6 -9 -6 -17q0 -16 20 -16h4v-27h-200v27q22 0 31 7t16 30l51 161
q4 12 4 13q2 9 -5 15t-24 7v27z" />
    <glyph glyph-name="icircumflex" unicode="&#xee;" horiz-adv-x="591" 
d="M430 1018v-916q0 -31 14.5 -48t49.5 -27v-27h-396v27q34 11 49 28t15 47v916q0 31 -14.5 47t-49.5 27v28h396v-28q-35 -9 -49.5 -26t-14.5 -48zM195 1243h-205v27q25 2 35.5 8t33.5 35l127 149q11 11 11 23q0 18 -27 18h-6v27h254v-27q-31 -3 -31 -16q0 -15 16 -31
l154 -166q10 -11 18.5 -14.5t26.5 -5.5v-27h-258v27q31 3 31 16q0 6 -17 23l-94 106l-90 -108q-10 -13 -10 -19q0 -16 18 -16q7 0 13 -2v-27z" />
    <glyph glyph-name="idieresis" unicode="&#xef;" horiz-adv-x="591" 
d="M432 1018v-916q0 -31 14.5 -48t49.5 -27v-27h-396v27q34 11 49 28t15 47v916q0 31 -14.5 47t-49.5 27v28h396v-28q-35 -9 -49.5 -26t-14.5 -48zM113 1481q60 0 101.5 -42t41.5 -102t-41.5 -101.5t-101.5 -41.5t-102 41.5t-42 101.5q0 59 42.5 101.5t101.5 42.5zM481 1481
q60 0 102 -42t42 -102t-42 -101.5t-102 -41.5t-101.5 41.5t-41.5 101.5q0 59 42.5 101.5t100.5 42.5z" />
    <glyph glyph-name="eth" unicode="&#xf0;" horiz-adv-x="1441" 
d="M164 453h-29q-29 0 -46 -15.5t-26 -50.5h-32v332h32q17 -64 72 -64h29v363q0 31 -14 47.5t-50 28.5v26h654q157 0 262 -29.5t180 -95.5q172 -146 172 -434q0 -286 -172 -436q-75 -66 -179.5 -95.5t-262.5 -29.5h-654v27q34 11 49 28t15 47v351zM432 655h154
q31 0 46.5 14.5t24.5 49.5h33v-332h-33q-9 37 -24.5 51.5t-46.5 14.5h-154v-250h285q192 0 285.5 88.5t93.5 269.5q0 357 -379 357h-285v-263z" />
    <glyph glyph-name="ntilde" unicode="&#xf1;" horiz-adv-x="1523" 
d="M406 737v-635q0 -31 14 -48t49 -27v-27h-371v27q34 11 49 28t15 47v916q0 31 -14.5 47t-49.5 27v28h430v-28q-45 -9 -45 -39q0 -23 33 -56l600 -596v617q0 31 -14 47.5t-49 26.5v28h370v-28q-35 -10 -49 -26.5t-14 -47.5v-916q0 -31 14 -48t49 -27v-27h-401v27
q45 8 45 36q0 13 -12.5 29.5t-55.5 59.5zM936 1481l131 -95l-12 -24q-15 6 -17 6q-6 0 -10 -5t-22 -32q-69 -98 -146 -98q-31 0 -78 20l-141 62q-37 18 -59 18q-20 0 -36.5 -15.5t-17.5 -37.5q0 -11 15 -29l-11 -20l-131 94l11 18q8 -4 18 -4q8 0 13.5 5t17.5 22
q26 46 69 77.5t78 31.5q40 0 78 -17l119 -53q68 -31 90 -31q17 0 32 16t15 35q0 15 -16 31z" />
    <glyph glyph-name="ograve" unicode="&#xf2;" 
d="M731 1145q293 0 474 -162t181 -424q0 -261 -181 -422.5t-474 -161.5t-475 161.5t-182 422.5t182 423.5t475 162.5zM731 934q-167 0 -276 -105t-109 -268t109 -269t276 -106t275 105.5t108 269.5q0 163 -108 268t-275 105zM477 1530h293v-27q-30 -3 -27 -22q0 -1 1 -3
t2 -5t2 -5l51 -161q6 -23 15 -30t32 -7v-27h-201v27h4q21 0 21 16q0 8 -6 17l-136 172q-14 18 -22 22.5t-29 5.5v27z" />
    <glyph glyph-name="oacute" unicode="&#xf3;" 
d="M731 1145q293 0 474 -162t181 -424q0 -261 -181 -422.5t-474 -161.5t-475 161.5t-182 422.5t182 423.5t475 162.5zM731 934q-167 0 -276 -105t-109 -268t109 -269t276 -106t275 105.5t108 269.5q0 163 -108 268t-275 105zM688 1530h295v-27q-21 -1 -29 -5.5t-22 -22.5
l-135 -172q-6 -9 -6 -17q0 -16 20 -16h4v-27h-201v27q22 0 31.5 7t16.5 30l51 161q4 12 4 13q2 9 -5 15t-24 7v27z" />
    <glyph glyph-name="ocircumflex" unicode="&#xf4;" 
d="M731 1145q293 0 474 -162t181 -424q0 -261 -181 -422.5t-474 -161.5t-475 161.5t-182 422.5t182 423.5t475 162.5zM731 934q-167 0 -276 -105t-109 -268t109 -269t276 -106t275 105.5t108 269.5q0 163 -108 268t-275 105zM629 1243h-205v27q25 2 36 8t34 35l127 149
q10 10 10 23q0 18 -27 18h-6v27h254v-27q-31 -3 -31 -16q0 -14 17 -31l153 -166q10 -11 18.5 -14.5t26.5 -5.5v-27h-258v27q31 3 31 16q0 7 -16 23l-95 106l-90 -108q-10 -13 -10 -19q0 -16 18 -16q7 0 13 -2v-27z" />
    <glyph glyph-name="otilde" unicode="&#xf5;" 
d="M731 1145q293 0 474 -162t181 -424q0 -261 -181 -422.5t-474 -161.5t-475 161.5t-182 422.5t182 423.5t475 162.5zM731 934q-167 0 -276 -105t-109 -268t109 -269t276 -106t275 105.5t108 269.5q0 163 -108 268t-275 105zM932 1481l131 -95l-12 -24q-15 6 -17 6
q-6 0 -11 -5.5t-22 -31.5q-69 -98 -145 -98q-31 0 -78 20l-141 62q-37 18 -59 18q-20 0 -36.5 -15.5t-17.5 -37.5q0 -11 15 -29l-11 -20l-131 94l11 18q8 -4 18 -4q8 0 13.5 5t17.5 22q26 46 69 77.5t78 31.5q40 0 78 -17l119 -53q68 -31 90 -31q17 0 32 16t15 35
q0 15 -16 31z" />
    <glyph glyph-name="odieresis" unicode="&#xf6;" 
d="M731 1145q293 0 474 -162t181 -424q0 -261 -181 -422.5t-474 -161.5t-475 161.5t-182 422.5t182 423.5t475 162.5zM731 934q-167 0 -276 -105t-109 -268t109 -269t276 -106t275 105.5t108 269.5q0 163 -108 268t-275 105zM506 1481q60 0 101.5 -42t41.5 -102
t-41.5 -101.5t-101.5 -41.5t-102 41.5t-42 101.5q0 59 43 101.5t101 42.5zM956 1481q60 0 102 -42t42 -102t-42 -101.5t-102 -41.5t-101.5 41.5t-41.5 101.5q0 59 42.5 101.5t100.5 42.5z" />
    <glyph glyph-name="divide" unicode="&#xf7;" horiz-adv-x="1124" 
d="M559 246q53 0 90 -37t37 -90t-37 -90t-90 -37t-90 37t-37 90t37 90t90 37zM559 1063q53 0 90 -37.5t37 -89.5t-37 -89.5t-90 -37.5t-90 37.5t-37 89.5t37 89.5t90 37.5zM20 590h1078v-113h-1078v113z" />
    <glyph glyph-name="oslash" unicode="&#xf8;" horiz-adv-x="1427" 
d="M1190 1065l-41 -51q221 -167 221 -455q0 -261 -181 -422.5t-474 -161.5q-172 0 -320 64q-25 -36 -31 -47.5t-6 -24.5q0 -42 60 -51v-25h-355v23q52 9 80.5 32t96.5 111l39 49q-222 174 -222 455q0 260 182.5 422t475.5 162q94 0 160 -13.5t159 -50.5q29 45 29 62
q0 22 -16 38.5t-43 22.5v25h352v-25q-51 -7 -72.5 -25.5t-93.5 -113.5zM997 817l-456 -592q89 -39 174 -39q167 0 275 105t108 268q0 74 -20.5 126.5t-80.5 131.5zM430 303l459 592q-91 39 -176 39q-167 0 -275 -105t-108 -268q0 -74 20 -126.5t80 -131.5z" />
    <glyph glyph-name="ugrave" unicode="&#xf9;" horiz-adv-x="1413" 
d="M1272 1018v-594q0 -149 -43.5 -238.5t-138.5 -136.5q-142 -74 -385 -74q-235 0 -386 74q-94 47 -137 136.5t-43 238.5v594q0 31 -14 47.5t-49 26.5v28h397v-28q-35 -9 -50 -26t-15 -48v-539q0 -94 16 -144.5t57 -82.5q81 -66 236 -66q156 0 237 66q40 32 56 82t16 145
v539q0 31 -14 47.5t-49 26.5v28h372v-28q-35 -10 -49 -26.5t-14 -47.5zM481 1530h293v-27q-15 -2 -21 -7t-5 -15q0 -1 4 -13l51 -161q6 -23 15 -30t32 -7v-27h-201v27h4q21 0 21 16q0 8 -6 17l-136 172q-14 18 -22 22.5t-29 5.5v27z" />
    <glyph glyph-name="uacute" unicode="&#xfa;" horiz-adv-x="1413" 
d="M1272 1018v-594q0 -149 -43.5 -238.5t-138.5 -136.5q-142 -74 -385 -74q-235 0 -386 74q-94 47 -137 136.5t-43 238.5v594q0 31 -14 47.5t-49 26.5v28h397v-28q-35 -9 -50 -26t-15 -48v-539q0 -94 16 -144.5t57 -82.5q81 -66 236 -66q156 0 237 66q40 32 56 82t16 145
v539q0 31 -14 47.5t-49 26.5v28h372v-28q-35 -10 -49 -26.5t-14 -47.5zM664 1530h294v-27q-21 -1 -29 -5.5t-22 -22.5l-135 -172q-6 -9 -6 -17q0 -16 20 -16h5v-27h-201v27q22 0 31 7t16 30l51 161q4 12 4 13q2 9 -4.5 15t-23.5 7v27z" />
    <glyph glyph-name="ucircumflex" unicode="&#xfb;" horiz-adv-x="1413" 
d="M1272 1018v-594q0 -149 -43.5 -238.5t-138.5 -136.5q-142 -74 -385 -74q-235 0 -386 74q-94 47 -137 136.5t-43 238.5v594q0 31 -14 47.5t-49 26.5v28h397v-28q-35 -9 -50 -26t-15 -48v-539q0 -94 16 -144.5t57 -82.5q81 -66 236 -66q156 0 237 66q40 32 56 82t16 145
v539q0 31 -14 47.5t-49 26.5v28h372v-28q-35 -10 -49 -26.5t-14 -47.5zM604 1243h-205v27q25 2 36 8t34 35l127 149q10 10 10 23q0 18 -26 18h-7v27h254v-27q-30 -3 -30 -16q0 -15 16 -31l154 -166q10 -11 18.5 -14.5t26.5 -5.5v-27h-258v27q30 3 30 16q0 7 -16 23l-94 106
l-90 -108q-11 -15 -11 -19q0 -16 19 -16q6 0 12 -2v-27z" />
    <glyph glyph-name="udieresis" unicode="&#xfc;" horiz-adv-x="1413" 
d="M1272 1018v-594q0 -149 -43.5 -238.5t-138.5 -136.5q-142 -74 -385 -74q-235 0 -386 74q-94 47 -137 136.5t-43 238.5v594q0 31 -14 47.5t-49 26.5v28h397v-28q-35 -9 -50 -26t-15 -48v-539q0 -94 16 -144.5t57 -82.5q81 -66 236 -66q156 0 237 66q40 32 56 82t16 145
v539q0 31 -14 47.5t-49 26.5v28h372v-28q-35 -10 -49 -26.5t-14 -47.5zM481 1481q60 0 102 -42t42 -102t-42 -101.5t-102 -41.5t-101.5 41.5t-41.5 101.5q0 59 42.5 101.5t100.5 42.5zM932 1481q60 0 101.5 -42t41.5 -102t-41.5 -101.5t-101.5 -41.5t-102 41.5t-42 101.5
q0 59 43 101.5t101 42.5z" />
    <glyph glyph-name="yacute" unicode="&#xfd;" horiz-adv-x="1226" 
d="M748 492v-390q0 -31 14 -48t49 -27v-27h-395v27q35 10 49 27t14 48v390l-332 456q-56 76 -90.5 106t-79.5 40v26h506v-28q-65 -14 -65 -60q0 -25 47 -88l162 -227l159 227q31 43 39.5 58.5t8.5 29.5q0 23 -15.5 37t-50.5 23v28h481v-26q-44 -10 -79 -40.5t-91 -105.5z
M571 1530h293v-27q-20 -2 -28.5 -6.5t-20.5 -21.5l-137 -172q-6 -9 -6 -17q0 -16 20 -16h4v-27h-200v27q23 0 32.5 7t16.5 30l51 161q0 2 1 6.5t1 6.5q0 19 -27 22v27z" />
    <glyph glyph-name="thorn" unicode="&#xfe;" horiz-adv-x="1239" 
d="M430 942h295q236 0 349.5 -80.5t113.5 -249.5q0 -167 -114 -248t-349 -81h-295v-181q0 -31 14.5 -48t49.5 -27v-27h-396v27q34 11 49 28t15 47v916q0 31 -14.5 47t-49.5 27v28h396v-28q-35 -9 -49.5 -26t-14.5 -48v-76zM430 485h287q115 0 160 28t45 99q0 72 -44.5 99.5
t-160.5 27.5h-287v-254z" />
    <glyph glyph-name="ydieresis" unicode="&#xff;" horiz-adv-x="1226" 
d="M748 492v-390q0 -31 14 -48t49 -27v-27h-395v27q35 10 49 27t14 48v390l-332 456q-56 76 -90.5 106t-79.5 40v26h506v-28q-65 -14 -65 -60q0 -25 47 -88l162 -227l159 227q31 43 39.5 58.5t8.5 29.5q0 23 -15.5 37t-50.5 23v28h481v-26q-44 -10 -79 -40.5t-91 -105.5z
M387 1481q60 0 101.5 -42t41.5 -102t-41.5 -101.5t-101.5 -41.5t-101.5 41.5t-41.5 101.5q0 59 42.5 101.5t100.5 42.5zM838 1481q60 0 101.5 -42t41.5 -102t-41.5 -101.5t-101.5 -41.5t-102 41.5t-42 101.5q0 59 43 101.5t101 42.5z" />
    <glyph glyph-name="dotlessi" unicode="&#x131;" horiz-adv-x="591" 
d="M430 1018v-916q0 -31 14.5 -48t49.5 -27v-27h-396v27q34 11 49 28t15 47v916q0 31 -14.5 47t-49.5 27v28h396v-28q-35 -9 -49.5 -26t-14.5 -48z" />
    <glyph glyph-name="Lslash" unicode="&#x141;" horiz-adv-x="1449" 
d="M186 403l-65 -45q-38 -27 -45 -39.5t-13 -58.5h-34v328h32q6 -43 29 -43q18 0 66 39q2 1 4 2.5t3.5 2.5t2.5 1l20 16v656q0 30 -14 46t-49 25v33h424v-33q-35 -9 -49.5 -24.5t-14.5 -46.5v-490l283 199q41 32 47 42t12 56h35v-328h-35q-3 43 -28 43q-13 0 -52 -28
q-15 -10 -22 -17l-240 -168v-346h840q31 0 47 14.5t25 51.5h32v-354h-32q-9 35 -25 49t-47 14h-1200v33q35 9 49 25t14 46v299z" />
    <glyph glyph-name="lslash" unicode="&#x142;" horiz-adv-x="1175" 
d="M162 365l-60 -41q-31 -23 -36.5 -33t-10.5 -45h-26v272h26q3 -33 23 -33q12 0 41 23q5 3 9 6t9 6l25 19v479q0 31 -14.5 47t-49.5 27v28h396v-28q-35 -9 -49.5 -26t-14.5 -48v-332l188 133q35 26 39.5 33.5t10.5 44.5h26v-274h-26q-3 34 -23 34q-12 0 -43 -22
q-3 -3 -7.5 -6.5l-6.5 -5t-2 -2.5l-156 -109v-309h627q31 0 48.5 14t27.5 49h26v-329h-26q-10 35 -27.5 49t-48.5 14h-959v27q34 11 49 28t15 47v263z" />
    <glyph glyph-name="OE" unicode="&#x152;" horiz-adv-x="2435" 
d="M1364 598v-373h879q31 0 46.5 14.5t24.5 51.5h33v-354h-33q-9 35 -25 49t-46 14h-1176q-28 0 -53 -2q-111 -6 -156 -6q-219 0 -394 88.5t-273.5 246t-98.5 355.5q0 201 98 358.5t274 245.5t400 88q65 0 150 -6q25 -2 53 -2h1151q31 0 47 14.5t25 49.5h32v-353h-32
q-9 35 -25 49.5t-47 14.5h-854v-326h555q31 0 47 14.5t25 51.5h32v-346h-32q-9 35 -25.5 49t-46.5 14h-555zM1067 225v916q-99 12 -166 12q-236 0 -370 -125t-134 -346q0 -216 134.5 -341.5t365.5 -125.5q83 0 170 10z" />
    <glyph glyph-name="oe" unicode="&#x153;" horiz-adv-x="2007" 
d="M1139 477v-274h710q31 0 47.5 14t26.5 51h27v-331h-27q-10 35 -26.5 49t-47.5 14h-981q-16 0 -92 -6q-25 -2 -76 -2q-283 0 -463 159.5t-180 409.5q0 247 181.5 407t461.5 160q39 0 123 -6q14 -2 45 -2h953q32 0 48 14t27 50h27v-332h-27q-11 36 -28 51t-47 15h-682v-246
h420q30 0 47 14.5t28 48.5h27v-323h-27q-9 35 -26.5 50t-48.5 15h-420zM870 203v715q-61 10 -141 10q-181 0 -290 -100.5t-109 -266.5q0 -167 109 -267.5t290 -100.5q75 0 141 10z" />
    <glyph glyph-name="Scaron" unicode="&#x160;" horiz-adv-x="1474" 
d="M1393 1251l-162 -321l-29 16v15q0 33 -57 73q-84 60 -194 92.5t-224 32.5q-146 0 -232.5 -47t-86.5 -127q0 -36 24.5 -63t67.5 -41q39 -12 62 -15.5t145 -15.5l157 -16q136 -13 224 -40t155 -73q69 -51 108.5 -131.5t39.5 -173.5q0 -201 -172 -321t-461 -120
q-127 0 -230 22t-243 79q-16 6 -56 24l-20 13l-12 4l-11 4q-21 12 -32 12q-15 0 -43 -22l-29 14l147 336l31 -15q-2 -6 -2 -12q0 -54 74 -107t191.5 -86.5t236.5 -33.5q151 0 246.5 55.5t95.5 143.5q0 32 -19.5 58.5t-54.5 39.5q-58 22 -205 37l-153 16q-154 15 -219.5 29.5
t-128.5 46.5q-90 44 -140.5 129.5t-50.5 191.5q0 202 158 319.5t430 117.5q120 0 213.5 -19.5t238.5 -75.5l30 -11.5t32 -12.5q24 -12 41 -19q30 -10 41 -10q19 0 49 23zM840 1755h204v-26q-25 -2 -35.5 -8t-33.5 -33l-127 -150q-10 -13 -10 -27q0 -16 32 -16v-27h-254v27
q31 3 31 18q0 10 -16 29l-154 166q-10 12 -18.5 15.5t-26.5 5.5v26h258v-26q-31 -3 -31 -15q0 -7 17 -24l94 -105l90 109q10 10 10 16q0 16 -18 16q-3 0 -12 3v26z" />
    <glyph glyph-name="scaron" unicode="&#x161;" horiz-adv-x="1261" 
d="M1176 1020l-136 -262l-24 14v10q0 36 -62.5 73.5t-160 62t-191.5 24.5q-123 0 -201.5 -39.5t-78.5 -101.5q0 -50 52 -71.5t201 -31.5l158 -12q236 -19 349.5 -103.5t113.5 -242.5q0 -166 -147 -265.5t-392 -99.5q-144 0 -259 25t-242 82q-13 8 -29 8q-21 0 -37 -24
l-24 10l114 274l27 -10q-2 -4 -2 -8q-2 -36 62 -72t167.5 -59t208.5 -23q132 0 212.5 37.5t80.5 99.5q0 56 -51 79.5t-195 33.5l-158 14q-128 11 -194 26.5t-117 47.5q-64 40 -99.5 108.5t-35.5 153.5q0 167 141 267t377 100q112 0 212 -26t237 -91q43 -18 55 -18
q19 0 43 22zM719 1530h205v-27q-25 -2 -36 -8t-34 -35l-127 -149q-10 -10 -10 -23q0 -18 26 -18h7v-27h-254v27q30 3 30 16q0 15 -16 31l-154 166q-10 11 -18.5 14.5t-26.5 5.5v27h258v-27q-30 -3 -30 -16q0 -7 16 -23l94 -106l90 108q11 15 11 19q0 16 -19 16q-6 0 -12 2
v27z" />
    <glyph glyph-name="Ydieresis" unicode="&#x178;" 
d="M879 571v-467q0 -29 15 -45.5t50 -25.5v-33h-428v33q35 9 50.5 25.5t15.5 45.5v467l-443 621q-56 82 -88 108.5t-80 32.5v33h541v-33q-31 -5 -49.5 -21t-18.5 -40q0 -12 6.5 -24.5t34.5 -55.5l248 -367l252 367q41 60 41 80q0 24 -18.5 40t-49.5 21v33h529v-33
q-46 -6 -78 -32.5t-90 -108.5zM506 1755q60 0 101.5 -41.5t41.5 -101.5t-41.5 -102t-101.5 -42t-102 42t-42 102q0 58 42.5 100.5t101.5 42.5zM956 1755q60 0 102 -41.5t42 -101.5t-42 -102t-102 -42t-101.5 42t-41.5 102q0 58 42.5 100.5t100.5 42.5z" />
    <glyph glyph-name="Zcaron" unicode="&#x17d;" horiz-adv-x="1462" 
d="M565 225h709q31 0 48 15t26 51h32v-354h-32q-10 35 -26.5 49t-47.5 14h-1192v70l792 1071h-681q-31 0 -47 -14.5t-25 -49.5h-33v353h33q9 -35 25.5 -49.5t46.5 -14.5h1175v-57zM805 1755h205v-26q-25 -2 -36 -8t-34 -33l-127 -150q-10 -13 -10 -27q0 -16 33 -16v-27h-254
v27q30 3 30 18q0 10 -16 29l-154 166q-10 12 -18.5 15.5t-26.5 5.5v26h258v-26q-30 -3 -30 -15q0 -8 16 -24l94 -105l90 109q11 11 11 16q0 16 -19 16q-3 0 -12 3v26z" />
    <glyph glyph-name="zcaron" unicode="&#x17e;" horiz-adv-x="1247" 
d="M512 203h567q31 0 48 14.5t26 48.5h27v-329h-27q-9 34 -26 48.5t-48 14.5h-1003v59l653 859h-543q-31 0 -48 -14.5t-27 -51.5h-27v332h27q11 -36 27 -50t48 -14h985v-49zM723 1530h205v-27q-25 -2 -36 -8t-34 -35l-127 -149q-10 -10 -10 -23q0 -18 27 -18h6v-27h-254v27
q30 3 30 16q0 15 -16 31l-154 166q-10 11 -18.5 14.5t-26.5 5.5v27h258v-27q-30 -3 -30 -16q0 -7 16 -23l94 -106l90 108q11 15 11 19q0 16 -19 16q-6 0 -12 2v27z" />
    <glyph glyph-name="florin" unicode="&#x192;" 
d="M6 -55l154 258l22 -13q-6 -12 -6 -22q0 -28 42.5 -55t86.5 -27q89 0 133.5 50.5t63.5 172.5l59 375h-88q-31 0 -50 -15t-34 -51h-31l54 347h32q4 -35 18.5 -49.5t43.5 -14.5h90l29 182q65 404 473 404q86 0 140.5 -14.5t104.5 -49.5q26 -18 35 -18q20 0 47 27l31 -15
l-151 -258l-33 15q14 41 14 51q0 12 -33 26q-66 27 -127 27q-184 0 -219 -223l-24 -154h184q30 0 49 15t33 49h33l-56 -347h-30q-5 36 -19.5 51t-44.5 15h-184l-64 -401q-20 -122 -40 -173.5t-66 -101.5q-122 -131 -346 -131q-131 0 -219 62q-26 18 -37 18q-17 0 -47 -23z
" />
    <glyph glyph-name="circumflex" unicode="&#x2c6;" horiz-adv-x="1024" 
d="M410 1243h-205v27q25 2 35.5 8t33.5 35l127 149q11 11 11 23q0 18 -27 18h-6v27h254v-27q-31 -3 -31 -16q0 -15 16 -31l154 -166q10 -11 18.5 -14.5t26.5 -5.5v-27h-258v27q31 3 31 16q0 6 -17 23l-94 106l-90 -108q-10 -13 -10 -19q0 -16 18 -16q7 0 13 -2v-27z" />
    <glyph glyph-name="caron" unicode="&#x2c7;" horiz-adv-x="1024" 
d="M612 1530h205v-27q-25 -2 -35.5 -8t-33.5 -35l-127 -149q-11 -11 -11 -23q0 -18 27 -18h6v-27h-254v27q31 3 31 16q0 14 -17 31l-153 166q-10 11 -18.5 14.5t-26.5 5.5v27h258v-27q-31 -3 -31 -16q0 -6 17 -23l94 -106l90 108q10 13 10 19q0 16 -18 16q-7 0 -13 2v27z
" />
    <glyph glyph-name="breve" unicode="&#x2d8;" horiz-adv-x="1024" 
d="M188 1481v24h177v-24q-15 -1 -19 -5t-4 -18q0 -46 51.5 -79t120.5 -33q68 0 119 33.5t51 78.5q0 14 -4 18t-21 5v24h179v-24q-23 -1 -26 -6.5t-5 -44.5q-4 -89 -88 -152.5t-197 -63.5q-141 0 -220 63.5t-85 180.5q0 12 -6 17t-23 6z" />
    <glyph glyph-name="dotaccent" unicode="&#x2d9;" horiz-adv-x="1024" 
d="M512 1481q60 0 101.5 -42t41.5 -102t-41.5 -101.5t-101.5 -41.5t-101.5 41.5t-41.5 101.5q0 59 42.5 101.5t100.5 42.5z" />
    <glyph glyph-name="ring" unicode="&#x2da;" horiz-adv-x="1024" 
d="M512 1571q102 0 174 -53.5t72 -128.5q0 -76 -72.5 -130.5t-173.5 -54.5t-173.5 54.5t-72.5 130.5q0 75 72 128.5t174 53.5zM514 1481q-54 0 -91.5 -27t-37.5 -65q0 -40 37.5 -67.5t91.5 -27.5q53 0 90 27.5t37 67.5q0 38 -37 65t-90 27z" />
    <glyph glyph-name="ogonek" unicode="&#x2db;" horiz-adv-x="1024" 
d="M1174 -268l20 -51q-94 -31 -176 -31q-107 0 -169.5 45t-62.5 123q0 130 144 182h147q-133 -60 -133 -174q0 -111 137 -111q37 0 93 17z" />
    <glyph glyph-name="tilde" unicode="&#x2dc;" horiz-adv-x="1024" 
d="M715 1481l131 -95l-12 -24q-15 6 -17 6q-6 0 -11 -5.5t-22 -31.5q-69 -98 -145 -98q-31 0 -78 20l-141 62q-37 18 -60 18q-20 0 -36 -15.5t-17 -37.5q0 -11 15 -29l-11 -20l-131 94l10 18q8 -4 19 -4q8 0 13.5 5t17.5 22q26 46 69 77.5t78 31.5q40 0 78 -17l119 -53
q68 -31 90 -31q17 0 32 16t15 35q0 15 -16 31z" />
    <glyph glyph-name="hungarumlaut" unicode="&#x2dd;" horiz-adv-x="1024" 
d="M674 1481h295v-27q-22 -2 -30.5 -6t-20.5 -21l-136 -172q-6 -9 -6 -16q0 -16 21 -16h4v-27h-201v27q22 0 31 7t16 30l51 159q4 12 4 15q2 9 -4.5 14t-23.5 6v27zM264 1481h295v-27q-22 -2 -30.5 -6t-20.5 -21l-135 -172q-6 -9 -6 -16q0 -16 20 -16h4v-27h-201v27
q22 0 31.5 7t16.5 30l51 159q4 12 4 15q2 9 -5 14t-24 6v27z" />
    <glyph glyph-name="Delta" unicode="&#x394;" horiz-adv-x="1253" 
d="M12 0l658 1409l575 -1409h-1233zM158 104h823l-387 938z" />
    <glyph glyph-name="Omega" unicode="&#x3a9;" horiz-adv-x="1572" 
d="M668 0h-598v313h49q10 -67 44.5 -98t96.5 -31h299l-6 78q-198 71 -306 206.5t-108 313.5q0 124 52.5 239.5t140 199.5t207 134t249.5 50q173 0 323 -84.5t238.5 -228.5t88.5 -310q0 -178 -108 -313.5t-306 -206.5l-6 -78h299q62 0 96.5 31t44.5 98h49v-313h-598l37 317
q120 67 191 193.5t71 271.5q0 147 -55.5 269.5t-152 193t-212.5 70.5t-212.5 -70.5t-151.5 -193t-55 -269.5q0 -145 71 -271.5t191 -193.5z" />
    <glyph glyph-name="pi" unicode="&#x3c0;" horiz-adv-x="1124" 
d="M61 713h-41q26 91 53.5 143t71.5 96q45 43 86 57.5t123 14.5h717v-182h-258q-25 -198 -25 -453q0 -104 34 -159.5t98 -55.5q101 0 116 150h49q-5 -81 -14 -122.5t-33 -84.5q-77 -144 -196 -144q-97 0 -150 98.5t-53 278.5q0 87 12.5 230t30.5 262h-223l-25 -264
q-5 -67 -18 -162q-25 -221 -37 -273q-41 -170 -152 -170q-46 0 -78 33t-32 82q0 32 18 61t64 72q53 50 76.5 87t27.5 79l53 455h-94q-73 0 -110.5 -24.5t-90.5 -104.5z" />
    <glyph glyph-name="endash" unicode="&#x2013;" horiz-adv-x="1576" 
d="M1491 729v-340h-33q-9 35 -26 50.5t-46 15.5h-1193q-29 0 -46 -15.5t-26 -50.5h-33v340h33q9 -35 25 -49t47 -14h1193q29 0 46 14.5t26 48.5h33z" />
    <glyph glyph-name="emdash" unicode="&#x2014;" horiz-adv-x="1361" 
d="M1362 729v-340h-33q-9 35 -26 50.5t-46 15.5h-1153q-29 0 -45.5 -15.5t-25.5 -50.5h-33v340h33q9 -35 24.5 -49t46.5 -14h1153q29 0 46 14.5t26 48.5h33z" />
    <glyph glyph-name="quoteleft" unicode="&#x2018;" horiz-adv-x="628" 
d="M383 1391l47 -66q-85 -56 -120 -105t-48 -133q48 13 72 13q65 0 104 -47t39 -125q0 -68 -41.5 -112t-105.5 -44q-81 0 -130.5 64.5t-49.5 169.5q0 219 233 385z" />
    <glyph glyph-name="quoteright" unicode="&#x2019;" horiz-adv-x="628" 
d="M246 772l-49 64q84 56 119.5 105t50.5 132q-49 -10 -74 -10q-65 0 -104 47t-39 125q0 68 41.5 112t105.5 44q81 0 130.5 -64.5t49.5 -169.5q0 -222 -231 -385z" />
    <glyph glyph-name="quotesinglbase" unicode="&#x201a;" horiz-adv-x="628" 
d="M246 -313l-49 63q84 56 119.5 105.5t50.5 132.5q-51 -13 -74 -13q-65 0 -104 47t-39 125q0 68 41.5 112t105.5 44q82 0 131 -63.5t49 -169.5q0 -220 -231 -383z" />
    <glyph glyph-name="quotedblleft" unicode="&#x201c;" horiz-adv-x="1105" 
d="M383 1391l47 -66q-85 -56 -120 -105t-48 -133q48 13 72 13q65 0 104 -47t39 -125q0 -68 -41.5 -112t-105.5 -44q-81 0 -130.5 64.5t-49.5 169.5q0 219 233 385zM860 1391l47 -66q-84 -56 -118.5 -105t-49.5 -133q51 13 74 13q64 0 102.5 -47t38.5 -125q0 -68 -41.5 -112
t-105.5 -44q-81 0 -130.5 64.5t-49.5 169.5q0 219 233 385z" />
    <glyph glyph-name="quotedblright" unicode="&#x201d;" horiz-adv-x="1105" 
d="M246 772l-49 64q84 56 119.5 105t50.5 132q-49 -10 -74 -10q-65 0 -104 47t-39 125q0 68 41.5 112t105.5 44q81 0 130.5 -64.5t49.5 -169.5q0 -222 -231 -385zM723 772l-49 64q85 55 120 104.5t50 132.5q-49 -10 -74 -10q-65 0 -104 47t-39 125q0 68 41.5 112t105.5 44
q81 0 130.5 -64.5t49.5 -169.5q0 -222 -231 -385z" />
    <glyph glyph-name="quotedblbase" unicode="&#x201e;" horiz-adv-x="1105" 
d="M246 -313l-49 63q84 56 119.5 105.5t50.5 132.5q-51 -13 -74 -13q-65 0 -104 47t-39 125q0 68 41.5 112t105.5 44q82 0 131 -63.5t49 -169.5q0 -220 -231 -383zM723 -313l-49 63q84 55 119.5 104.5t50.5 133.5q-51 -13 -74 -13q-65 0 -104 47t-39 125q0 68 41.5 112
t105.5 44q82 0 131 -63.5t49 -169.5q0 -220 -231 -383z" />
    <glyph glyph-name="dagger" unicode="&#x2020;" horiz-adv-x="1103" 
d="M641 1073h264q30 0 46.5 15t25.5 51h33v-316h-33q-9 34 -25 48t-47 14h-264l41 -918q2 -32 14 -46.5t49 -24.5v-33h-385v33q37 11 50 25t14 46l41 918h-264q-29 0 -46 -14.5t-26 -47.5h-33v316h33q10 -43 28 -54.5t72 -11.5h236l-41 324q-3 35 -15 48.5t-49 22.5v33h385
v-33q-37 -9 -48.5 -22.5t-14.5 -48.5z" />
    <glyph glyph-name="daggerdbl" unicode="&#x2021;" horiz-adv-x="1103" 
d="M641 1073h264q30 0 46.5 15t25.5 51h33v-316h-33q-9 34 -25 48t-47 14h-264l8 -406h256q30 0 46.5 14.5t25.5 49.5h33v-316h-33q-9 35 -25.5 49.5t-46.5 14.5h-256l33 -324q3 -35 14.5 -48.5t48.5 -22.5v-33h-385v33q37 9 49 22.5t15 48.5l33 324h-228q-54 0 -71.5 -11.5
t-28.5 -52.5h-33v316h33q9 -35 25.5 -49.5t46.5 -14.5h256l8 406h-264q-29 0 -46 -14.5t-26 -47.5h-33v316h33q10 -43 28 -54.5t72 -11.5h236l-41 324q-3 35 -15 48.5t-49 22.5v33h385v-33q-37 -9 -48.5 -22.5t-14.5 -48.5z" />
    <glyph glyph-name="bullet" unicode="&#x2022;" horiz-adv-x="1366" 
d="M688 977q116 0 198.5 -83t82.5 -200t-82.5 -200.5t-198.5 -83.5q-120 0 -203.5 82.5t-83.5 201.5q0 117 83.5 200t203.5 83z" />
    <glyph glyph-name="ellipsis" unicode="&#x2026;" horiz-adv-x="1884" 
d="M313 303q67 0 115.5 -48.5t48.5 -115.5t-48.5 -115.5t-115.5 -48.5t-115 48t-48 116t48 116t115 48zM942 303q68 0 116 -48.5t48 -115.5t-48 -115.5t-116 -48.5t-116 48.5t-48 115.5t48 115.5t116 48.5zM1569 303q67 0 115.5 -48.5t48.5 -115.5t-48.5 -115.5
t-115.5 -48.5t-115.5 48.5t-48.5 115.5t48.5 115.5t115.5 48.5z" />
    <glyph glyph-name="perthousand" unicode="&#x2030;" horiz-adv-x="2643" 
d="M418 1378q154 0 251 -98t97 -254q0 -157 -97 -255.5t-251 -98.5q-156 0 -253 98t-97 256q0 157 97.5 254.5t252.5 97.5zM416 1235q-78 0 -127 -58.5t-49 -150.5q0 -94 49 -152.5t127 -58.5q79 0 128.5 58.5t49.5 152.5q0 93 -49.5 151t-128.5 58zM1391 694
q155 0 252.5 -97.5t97.5 -254.5q0 -158 -97 -256t-253 -98q-154 0 -251.5 98t-97.5 256q0 156 97.5 254t251.5 98zM1391 551q-78 0 -127.5 -58.5t-49.5 -150.5q0 -94 49.5 -152.5t127.5 -58.5q79 0 128.5 58.5t49.5 152.5q0 93 -49.5 151t-128.5 58zM1380 1192l-805 -1040
q-36 -47 -36 -68q0 -39 59 -51v-33h-354v33q53 8 81 30.5t97 112.5l788 1016q45 56 45 80q0 45 -59 61v33h354v-33q-30 -3 -42 -5.5t-33 -20t-36.5 -38zM2226 694q155 0 251.5 -97.5t96.5 -254.5t-96.5 -255.5t-251.5 -98.5t-251.5 98t-96.5 256q0 157 96.5 254.5
t251.5 97.5zM2226 551q-78 0 -127 -58.5t-49 -150.5q0 -94 49 -152.5t127 -58.5t127 58.5t49 152.5q0 92 -49 150.5t-127 58.5z" />
    <glyph glyph-name="guilsinglleft" unicode="&#x2039;" horiz-adv-x="638" 
d="M489 983l-196 -401l196 -404h-172l-194 404l194 401h172z" />
    <glyph glyph-name="guilsinglright" unicode="&#x203a;" horiz-adv-x="638" 
d="M150 983h172l194 -401l-194 -404h-172l196 404z" />
    <glyph glyph-name="fraction" unicode="&#x2044;" horiz-adv-x="587" 
d="M715 1192l-619 -1040q-24 -41 -24 -60q0 -50 75 -59v-33h-419v33q51 8 75 30t78 113l611 1016q28 48 28 76q2 22 -21 41.5t-57 23.5v33h422v-33q-51 -6 -68.5 -22.5t-80.5 -118.5z" />
    <glyph glyph-name="trademark" unicode="&#x2122;" horiz-adv-x="2082" 
d="M528 1227v-574q0 -15 8.5 -23t32.5 -12v-30h-278v30q23 4 31 12t8 23v574h-256q-18 0 -26.5 -8t-12.5 -29h-33v211h33q6 -20 14 -27.5t25 -7.5h710q17 0 26 7.5t15 27.5h31v-211h-31q-6 21 -15 29t-26 8h-256zM1454 592l-305 506v-445q0 -15 8 -23t31 -12v-30h-262v30
q23 4 32 12t9 23v647q0 15 -8 23t-31 12v31h338v-31q-29 -6 -29 -24q0 -11 6 -23l227 -375l228 369q12 16 16 33q0 20 -31 20v31h330v-31q-23 -4 -31 -12t-8 -23v-647q0 -15 9 -23t32 -12v-30h-276v30q21 4 29 12t8 23v447z" />
    <glyph glyph-name="partialdiff" unicode="&#x2202;" horiz-adv-x="1011" 
d="M219 1380l-84 105q152 57 264 57q154 0 279.5 -93t196.5 -258t71 -368q0 -187 -49.5 -375t-124.5 -290q-128 -178 -334 -178q-164 0 -274.5 116t-110.5 289q0 118 55.5 224.5t147.5 170.5t193 64q82 0 147.5 -28.5t165.5 -106.5q14 119 14 215q0 249 -87 385.5
t-245 136.5q-93 0 -225 -66zM750 639q-65 65 -111 89t-104 24q-82 0 -152 -57.5t-111 -156t-41 -212.5q0 -134 48.5 -208.5t136.5 -74.5q63 0 125 48t102 128q52 108 72 215q41 193 35 205z" />
    <glyph glyph-name="product" unicode="&#x220f;" horiz-adv-x="1685" 
d="M51 -254v53h6q104 0 152 64q17 26 23 60.5t6 113.5v1210q0 79 -6 113.5t-23 60.5q-48 64 -152 64h-6v53h1594v-53h-7q-103 0 -151 -64q-17 -26 -23 -60.5t-6 -113.5v-1210q0 -79 6 -113.5t23 -60.5q48 -64 151 -64h7v-53h-594v53h6q103 0 151 64q17 26 23 60.5t6 113.5
v1180q0 95 -7.5 135.5t-29.5 60.5q-34 29 -121 35q-18 2 -98 2h-137q-168 0 -209.5 -1t-75.5 -7q-63 -10 -81.5 -52.5t-18.5 -172.5v-1180q0 -80 5.5 -114t22.5 -60q48 -64 152 -64h6v-53h-594z" />
    <glyph glyph-name="summation" unicode="&#x2211;" 
d="M360 1456l385 -758l-411 -721h672q123 0 187.5 16.5t103.5 57.5t73 127h53l-110 -430h-1284l495 836l-477 956h1227l20 -338h-53q-18 107 -51 159.5t-96 73.5t-185 21h-549z" />
    <glyph glyph-name="minus" unicode="&#x2212;" horiz-adv-x="1570" 
d="M233 522v324h29q9 -35 24.5 -50.5t43.5 -15.5h909q28 0 43.5 15t24.5 51h28v-324h-28q-9 34 -24.5 48t-43.5 14h-909q-28 0 -43.5 -14t-24.5 -48h-29z" />
    <glyph glyph-name="radical" unicode="&#x221a;" horiz-adv-x="1124" 
d="M743 -72l-495 1016l-195 -96l-33 72l299 145l400 -807l260 1612l76 -10z" />
    <glyph glyph-name="infinity" unicode="&#x221e;" 
d="M731 621q172 227 387 227q128 0 210.5 -84.5t82.5 -214.5q0 -141 -79.5 -227t-209.5 -86q-96 0 -198.5 60.5t-192.5 168.5l-61 -72q-67 -74 -153 -115.5t-171 -41.5q-132 0 -213.5 84.5t-81.5 220.5q0 132 84 219.5t213 87.5q199 0 383 -227zM801 541
q110 -118 175.5 -158.5t149.5 -40.5q83 0 133 55.5t50 147.5q0 86 -54.5 141t-140.5 55q-48 0 -104 -24t-107 -66q-51 -39 -90 -94zM664 545q-99 108 -171 152t-149 44q-88 0 -139 -54t-51 -146q0 -88 50.5 -143.5t129.5 -55.5q132 0 274 139q21 21 45 49z" />
    <glyph glyph-name="integral" unicode="&#x222b;" horiz-adv-x="561" 
d="M369 1180v-705q0 -348 -52 -534q-22 -75 -71.5 -117.5t-116.5 -42.5q-57 0 -91 24.5t-34 65.5q0 29 21 48.5t53 19.5q20 0 33.5 -10t27.5 -35q16 -37 43 -37q29 0 46.5 33t17.5 90q0 63 -6 149q-9 190 -9 346v707q0 160 14.5 305t37.5 229q22 75 72 117.5t116 42.5
q59 0 92 -25t33 -69q0 -27 -21.5 -45.5t-52.5 -18.5q-24 0 -39.5 13t-42.5 55q-6 12 -26 12q-60 0 -60 -133q0 -51 6 -137q9 -156 9 -348z" />
    <glyph glyph-name="approxequal" unicode="&#x2248;" horiz-adv-x="1124" 
d="M1001 514l78 -70q-92 -174 -288 -174q-65 0 -136 21l-32 10l-166 51q-90 25 -129 25q-63 0 -101 -23.5t-110 -105.5l-88 69q121 172 299 172q78 0 256 -57q110 -34 142.5 -41.5t64.5 -7.5q57 0 100 26.5t110 104.5zM1001 836l78 -68q-92 -176 -288 -176q-69 0 -136 20
l-198 62q-86 24 -129 24q-63 0 -101 -23.5t-110 -105.5l-88 70q121 172 299 172q78 0 256 -57q110 -34 142.5 -41.5t64.5 -7.5q57 0 99 26.5t111 104.5z" />
    <glyph glyph-name="notequal" unicode="&#x2260;" horiz-adv-x="1124" 
d="M383 289h-352v112h407l144 285h-551v113h608l164 325l96 -49l-139 -276h346v-113h-404l-143 -285h547v-112h-604l-172 -340l-94 49z" />
    <glyph glyph-name="lessequal" unicode="&#x2264;" horiz-adv-x="1124" 
d="M1077 113v-113h-1018v113h1018zM1077 1309v-127l-856 -408l856 -407v-127l-1018 477v112z" />
    <glyph glyph-name="greaterequal" unicode="&#x2265;" horiz-adv-x="1124" 
d="M1077 113v-113h-1018v113h1018zM59 1309l1018 -480v-112l-1018 -477v127l856 407l-856 408v127z" />
    <glyph glyph-name="lozenge" unicode="&#x25ca;" horiz-adv-x="1011" 
d="M428 0l-391 772l401 744h129l387 -750l-403 -766h-123zM492 119l331 647l-321 633l-336 -627z" />
    <glyph glyph-name="apple" unicode="&#xf8ff;" horiz-adv-x="1617" 
d="M1167 1430v-23q0 -134 -112 -235.5t-258 -100.5q3 149 101.5 244.5t268.5 114.5zM1462 944q-90 -69 -128 -134.5t-38 -152.5q0 -104 54 -186t151 -123q-91 -188 -199 -295.5t-206 -107.5q-59 0 -133 35q-37 17 -58 20.5t-78 3.5q-38 0 -60 -4.5t-54 -19.5
q-82 -35 -138 -35q-102 0 -210 107t-179 270.5t-71 316.5q0 187 124.5 320t299.5 133q74 0 184 -41q73 -25 104 -25q29 0 84 21q74 28 109.5 36.5t79.5 8.5q229 0 362 -148z" />
    <glyph glyph-name="fi" unicode="&#xfb01;" horiz-adv-x="1841" 
d="M430 477v-375q0 -31 14.5 -48t49.5 -27v-27h-396v27q34 11 49 28t15 47v916q0 31 -14 47.5t-50 28.5v26h1004q32 0 48.5 14t27.5 50h26v-332h-26q-11 37 -27.5 51.5t-48.5 14.5h-672v-246h422q31 0 48.5 14t27.5 49h26v-323h-26q-11 35 -28 50t-48 15h-422zM1677 1018
v-916q0 -31 14.5 -48t49.5 -27v-27h-395v27q34 11 48.5 28t14.5 47v916q0 31 -14 47.5t-49 26.5v28h395v-28q-35 -9 -49.5 -26t-14.5 -48z" />
    <glyph glyph-name="fl" unicode="&#xfb02;" horiz-adv-x="2424" 
d="M430 477v-375q0 -31 14.5 -48t49.5 -27v-27h-396v27q34 11 49 28t15 47v916q0 31 -14 47.5t-50 28.5v26h1004q32 0 48.5 14t27.5 50h26v-332h-26q-11 37 -27.5 51.5t-48.5 14.5h-672v-246h422q31 0 48.5 14t27.5 49h26v-323h-26q-11 35 -28 50t-48 15h-422zM1677 203h629
q31 0 48.5 14t27.5 49h26v-329h-26q-10 35 -27.5 49t-48.5 14h-960v27q34 11 48.5 28t14.5 47v916q0 31 -14 47.5t-49 26.5v28h395v-28q-35 -9 -49.5 -26t-14.5 -48v-815z" />
    </font>
</defs>
</svg>
